<svg width="1598" height="660" viewBox="0 0 1598 660" fill="none" xmlns="http://www.w3.org/2000/svg">
<g opacity="0.1">
<mask id="mask0_739_5298" style="mask-type:alpha" maskUnits="userSpaceOnUse" x="0" y="0" width="1598" height="660">
<g clip-path="url(#clip0_739_5298)">
<path d="M163.71 48.9401L82.9399 2.31006L2.16992 48.9401V142.21L82.9399 188.84L163.71 142.21V48.9401Z" fill="#E4E6E8"/>
<path d="M264.44 191.15L181.67 143.36V47.79L182.67 47.21L264.44 0L347.21 47.79V143.37L346.21 143.95L264.44 191.16V191.15ZM185.67 141.05L264.44 186.53L343.21 141.05V50.1L264.44 4.62L185.67 50.1V141.06V141.05Z" fill="#E4E6E8"/>
<path d="M445.94 191.15L363.17 143.36V47.79L364.17 47.21L445.94 0L528.71 47.79V143.37L527.71 143.95L445.94 191.16V191.15ZM367.17 141.05L445.94 186.53L524.71 141.05V50.1L445.94 4.62L367.17 50.1V141.06V141.05Z" fill="#E4E6E8"/>
<path d="M708.21 48.9401L627.44 2.31006L546.67 48.9401V142.21L627.44 188.84L708.21 142.21V48.9401Z" stroke="#E4E6E8" stroke-width="4" stroke-miterlimit="10"/>
<path d="M907.62 57.2201L841.19 18.8701L774.76 57.2201V133.93L841.19 172.28L907.62 133.93V57.2201Z" stroke="#E4E6E8" stroke-width="4" stroke-miterlimit="10"/>
<path d="M1107.02 65.5099L1054.94 35.4399L1002.86 65.5099V125.64L1054.94 155.71L1107.02 125.64V65.5099Z" stroke="#E4E6E8" stroke-width="4" stroke-miterlimit="10"/>
<path d="M1306.43 73.79L1268.69 52L1230.95 73.79V117.36L1268.69 139.15L1306.43 117.36V73.79Z" stroke="#E4E6E8" stroke-width="4" stroke-miterlimit="10"/>
<path d="M1505.83 82.0698L1482.44 68.5698L1459.05 82.0698V109.08L1482.44 122.59L1505.83 109.08V82.0698Z" fill="#E4E6E8"/>
<path d="M82.9399 501.65L0.169922 453.86V358.28L1.16992 357.7L82.9399 310.49L165.71 358.28V453.86L164.71 454.44L82.9399 501.65V501.65ZM4.16992 451.55L82.9399 497.03L161.71 451.55V360.59L82.9399 315.11L4.16992 360.6V451.56V451.55Z" fill="#E4E6E8"/>
<path d="M264.44 501.65L181.67 453.86V358.28L182.67 357.7L264.44 310.49L347.21 358.28V453.86L346.21 454.44L264.44 501.65ZM185.67 451.55L264.44 497.03L343.21 451.55V360.59L264.44 315.11L185.67 360.59V451.55Z" fill="#E4E6E8"/>
<path d="M445.94 501.65L363.17 453.86V358.28L364.17 357.7L445.94 310.49L528.71 358.28V453.86L527.71 454.44L445.94 501.65ZM367.17 451.55L445.94 497.03L524.71 451.55V360.59L445.94 315.11L367.17 360.59V451.55Z" fill="#E4E6E8"/>
<path d="M708.21 359.44L627.44 312.81L546.67 359.44V452.71L627.44 499.34L708.21 452.71V359.44Z" stroke="#E4E6E8" stroke-width="4" stroke-miterlimit="10"/>
<path d="M907.62 367.72L841.19 329.37L774.76 367.72V444.43L841.19 482.78L907.62 444.43V367.72Z" stroke="#E4E6E8" stroke-width="4" stroke-miterlimit="10"/>
<path d="M1107.02 376.01L1054.94 345.94L1002.86 376.01V436.14L1054.94 466.21L1107.02 436.14V376.01Z" stroke="#E4E6E8" stroke-width="4" stroke-miterlimit="10"/>
<path d="M1306.43 384.29L1268.69 362.5L1230.95 384.29V427.86L1268.69 449.65L1306.43 427.86V384.29Z" fill="#E4E6E8"/>
<path d="M1505.83 392.57L1482.44 379.07L1459.05 392.57V419.58L1482.44 433.09L1505.83 419.58V392.57Z" stroke="#E4E6E8" stroke-width="4" stroke-miterlimit="10"/>
<path d="M172.94 347.15L90.1699 299.36V203.78L91.1699 203.2L172.94 155.99L255.71 203.78V299.36L254.71 299.94L172.94 347.15V347.15ZM94.1699 297.05L172.94 342.53L251.71 297.05V206.09L172.94 160.61L94.1699 206.09V297.05V297.05Z" fill="#E4E6E8"/>
<path d="M435.21 204.94L354.44 158.31L273.67 204.94V298.21L354.44 344.84L435.21 298.21V204.94Z" fill="#E4E6E8"/>
<path d="M535.94 347.15L453.17 299.36V203.78L454.17 203.2L535.94 155.99L618.71 203.78V299.36L617.71 299.94L535.94 347.15V347.15ZM457.17 297.05L535.94 342.53L614.71 297.05V206.09L535.94 160.61L457.17 206.09V297.05Z" fill="#E4E6E8"/>
<path d="M798.21 204.94L717.44 158.31L636.67 204.94V298.21L717.44 344.84L798.21 298.21V204.94Z" stroke="#E4E6E8" stroke-width="4" stroke-miterlimit="10"/>
<path d="M997.62 213.22L931.19 174.87L864.76 213.22V289.93L931.19 328.28L997.62 289.93V213.22Z" fill="#E4E6E8"/>
<path d="M1197.02 221.51L1144.94 191.44L1092.86 221.51V281.64L1144.94 311.71L1197.02 281.64V221.51Z" stroke="#E4E6E8" stroke-width="4" stroke-miterlimit="10"/>
<path d="M1396.43 229.79L1358.69 208L1320.95 229.79V273.36L1358.69 295.15L1396.43 273.36V229.79Z" stroke="#E4E6E8" stroke-width="4" stroke-miterlimit="10"/>
<path d="M1595.83 238.07L1572.44 224.57L1549.05 238.07V265.08L1572.44 278.59L1595.83 265.08V238.07Z" stroke="#E4E6E8" stroke-width="4" stroke-miterlimit="10"/>
<path d="M253.71 517.26L172.94 470.63L92.1699 517.26V610.53L172.94 657.16L253.71 610.53V517.26Z" fill="#E4E6E8"/>
<path d="M354.44 659.47L271.67 611.68V516.1L272.67 515.52L354.44 468.31L437.21 516.1V611.68L436.21 612.26L354.44 659.47V659.47ZM275.67 609.37L354.44 654.85L433.21 609.37V518.41L354.44 472.93L275.67 518.41V609.37Z" fill="#E4E6E8"/>
<path d="M535.94 659.47L453.17 611.68V516.1L454.17 515.52L535.94 468.31L618.71 516.1V611.68L617.71 612.26L535.94 659.47V659.47ZM457.17 609.37L535.94 654.85L614.71 609.37V518.41L535.94 472.93L457.17 518.41V609.37Z" fill="#E4E6E8"/>
<path d="M798.21 517.26L717.44 470.63L636.67 517.26V610.53L717.44 657.16L798.21 610.53V517.26Z" stroke="#E4E6E8" stroke-width="4" stroke-miterlimit="10"/>
<path d="M997.62 525.54L931.19 487.19L864.76 525.55V602.25L931.19 640.6L997.62 602.25V525.54Z" stroke="#E4E6E8" stroke-width="4" stroke-miterlimit="10"/>
<path d="M1197.02 533.83L1144.94 503.76L1092.86 533.83V593.97L1144.94 624.03L1197.02 593.97V533.83Z" stroke="#E4E6E8" stroke-width="4" stroke-miterlimit="10"/>
<path d="M1396.43 542.11L1358.69 520.32L1320.95 542.11V585.68L1358.69 607.47L1396.43 585.68V542.11Z" stroke="#E4E6E8" stroke-width="4" stroke-miterlimit="10"/>
<path d="M1595.83 550.39L1572.44 536.89L1549.05 550.39V577.4L1572.44 590.91L1595.83 577.4V550.39Z" stroke="#E4E6E8" stroke-width="4" stroke-miterlimit="10"/>
</g>
</mask>
<g mask="url(#mask0_739_5298)">
<rect x="-16" y="-20" width="1630" height="699" fill="#D9D9D9"/>
</g>
</g>
<defs>
<clipPath id="clip0_739_5298">
<rect width="1597.66" height="659.47" fill="white" transform="translate(0.169922)"/>
</clipPath>
</defs>
</svg>
