<svg width="14" height="14" viewBox="0 0 14 14" fill="none" xmlns="http://www.w3.org/2000/svg">
<g clip-path="url(#clip0_3002_1493)">
<path d="M7 0C5.61553 0 4.26215 0.390993 3.11101 1.12354C1.95987 1.85608 1.06266 2.89727 0.532846 4.11544C0.00303299 5.33362 -0.13559 6.67406 0.134506 7.96727C0.404603 9.26047 1.07129 10.4484 2.05026 11.3807C3.02922 12.3131 4.2765 12.948 5.63437 13.2052C6.99224 13.4625 8.3997 13.3304 9.67878 12.8259C10.9579 12.3213 12.0511 11.4668 12.8203 10.3705C13.5895 9.27414 14 7.98521 14 6.66667C14 4.89856 13.2625 3.20286 11.9497 1.95262C10.637 0.702379 8.85652 0 7 0ZM6.41654 9.8L3.5 6.65L4.42391 5.6L6.40103 7.78342L10.15 3.80677L11.0835 4.9L6.41654 9.8Z" fill="#4CA30D"/>
</g>
<defs>
<clipPath id="clip0_3002_1493">
<rect width="14" height="14" fill="white"/>
</clipPath>
</defs>
</svg>
