<svg width="14" height="14" viewBox="0 0 14 14" fill="none" xmlns="http://www.w3.org/2000/svg">
<path d="M7 14C10.866 14 14 10.866 14 7C14 3.13401 10.866 0 7 0C3.13401 0 0 3.13401 0 7C0 10.866 3.13401 14 7 14Z" fill="#B42318"/>
<path d="M8.02051 3.17969L7.78955 8.52393H6.31787L6.08691 3.17969H8.02051ZM6.03857 10.189C6.03857 9.93115 6.13167 9.71631 6.31787 9.54443C6.50407 9.36898 6.74577 9.28125 7.04297 9.28125C7.34017 9.28125 7.58008 9.36898 7.7627 9.54443C7.94889 9.71631 8.04199 9.93115 8.04199 10.189C8.04199 10.4468 7.94889 10.6634 7.7627 10.8389C7.58008 11.0107 7.34017 11.0967 7.04297 11.0967C6.74577 11.0967 6.50407 11.0107 6.31787 10.8389C6.13167 10.6634 6.03857 10.4468 6.03857 10.189Z" fill="white"/>
</svg>
