<svg width="101" height="104" viewBox="0 0 101 104" fill="none" xmlns="http://www.w3.org/2000/svg">
<g clip-path="url(#clip0_2655_17824)">
<path d="M88.1918 36.7108L78.6912 34.3297C78.2649 33.0842 77.7549 31.869 77.1647 30.6923L82.2146 22.2759C82.6876 21.4846 82.8827 20.558 82.7691 19.6431C82.6554 18.7282 82.2394 17.8775 81.5871 17.226L76.8365 12.46C76.185 11.8077 75.3344 11.3917 74.4195 11.278C73.5046 11.1644 72.578 11.3595 71.7866 11.8325L63.3703 16.8824C62.1893 16.2947 60.969 15.7894 59.7183 15.3701L57.3359 5.85658C57.1134 4.96124 56.598 4.16593 55.8717 3.59705C55.1454 3.02817 54.2499 2.71834 53.3273 2.7168H46.5944C45.6718 2.71834 44.7762 3.02817 44.0499 3.59705C43.3236 4.16593 42.8083 4.96124 42.5858 5.85658L40.2047 15.3559C38.9592 15.7822 37.744 16.2922 36.5673 16.8824L28.1372 11.8325C27.3458 11.3593 26.4189 11.164 25.5039 11.2777C24.5888 11.3914 23.738 11.8075 23.0864 12.46L18.335 17.2114C17.6827 17.8629 17.2667 18.7136 17.153 19.6285C17.0394 20.5434 17.2345 21.47 17.7075 22.2613L22.7574 30.6768C22.1703 31.8584 21.665 33.0789 21.2451 34.3297L11.7316 36.7108C10.8362 36.9333 10.0409 37.4486 9.47205 38.1749C8.90317 38.9012 8.59334 39.7968 8.5918 40.7194V47.4381C8.59334 48.3607 8.90317 49.2563 9.47205 49.9826C10.0409 50.7089 10.8362 51.2242 11.7316 51.4467L21.2322 53.8291C21.6585 55.0745 22.1685 56.2898 22.7587 57.4665L17.7075 65.9116C17.2345 66.703 17.0394 67.6296 17.153 68.5445C17.2667 69.4594 17.6827 70.31 18.335 70.9615L23.0864 75.7121C23.7379 76.3644 24.5886 76.7804 25.5035 76.8941C26.4184 77.0077 27.345 76.8126 28.1363 76.3396L36.5527 71.2897C37.7337 71.8774 38.9539 72.3827 40.2047 72.802L42.5871 82.3168C42.8096 83.2121 43.3249 84.0074 44.0512 84.5763C44.7775 85.1452 45.6731 85.455 46.5957 85.4566H53.3144C54.237 85.455 55.1325 85.1452 55.8588 84.5763C56.5851 84.0074 57.1005 83.2121 57.323 82.3168L59.7053 72.8162C60.9508 72.3899 62.1661 71.8799 63.3428 71.2897L71.7591 76.3396C72.5497 76.815 73.4769 77.0116 74.3924 76.8978C75.3079 76.7841 76.1588 76.3666 76.809 75.7121L81.5595 70.962C82.2118 70.3105 82.6278 69.4598 82.7415 68.5449C82.8552 67.63 82.6601 66.7034 82.1871 65.9121L77.1363 57.4953C77.7234 56.314 78.2287 55.0938 78.6486 53.8433L88.1617 51.4609C89.0622 51.2438 89.8637 50.7307 90.4379 50.0039C91.0121 49.2771 91.3258 48.3786 91.3286 47.4523V40.7194C91.327 39.7968 91.0172 38.9012 90.4483 38.1749C89.8794 37.4486 89.0841 36.9333 88.1888 36.7108" fill="#BBD2E5"/>
<path d="M78.6928 34.3286C78.2665 33.0832 77.7565 31.8679 77.1663 30.6912L82.2141 22.2762C82.6871 21.4848 82.8822 20.5582 82.7685 19.6433C82.6548 18.7285 82.2388 17.8778 81.5865 17.2263L80.6308 16.2706L22.4446 74.4564C23.3289 75.2981 24.242 76.0826 25.1973 76.8387C26.2049 77.046 27.2536 76.8683 28.1366 76.3407L36.553 71.2908C37.734 71.8785 38.9543 72.3838 40.205 72.8031L41.2605 77.0826L82.9151 35.3841L78.6928 34.3286ZM77.7939 13.4018L77.0665 12.7028H70.3332L69.3345 13.302L19.1779 63.4581L17.7513 65.9097C17.3305 66.5999 17.1222 67.3987 17.1521 68.2065C17.9362 69.3525 18.7791 70.4572 19.6773 71.5162L77.7939 13.4018ZM59.7194 15.3557L58.664 11.0762L17.0098 52.7876L21.2893 53.8431C21.4463 54.2852 21.6175 54.742 21.8029 55.1841L61.0609 15.8676C60.6188 15.6822 60.1625 15.5536 59.7199 15.354" fill="#D3DDED"/>
<path d="M49.961 25.541C46.2931 25.541 42.7077 26.6287 39.658 28.6664C36.6082 30.7041 34.2313 33.6005 32.8277 36.9891C31.4241 40.3778 31.0568 44.1065 31.7724 47.7039C32.4879 51.3013 34.2542 54.6057 36.8477 57.1992C39.4413 59.7928 42.7457 61.559 46.343 62.2746C49.9404 62.9901 53.6692 62.6229 57.0578 61.2193C60.4465 59.8156 63.3428 57.4387 65.3805 54.389C67.4183 51.3393 68.5059 47.7538 68.5059 44.086C68.506 41.6506 68.0264 39.239 67.0945 36.989C66.1626 34.739 64.7966 32.6945 63.0745 30.9725C61.3524 29.2504 59.308 27.8844 57.0579 26.9524C54.8079 26.0205 52.3964 25.5409 49.961 25.541Z" fill="#93BAD9"/>
<path d="M49.9609 34.0996C47.9858 34.0995 46.0551 34.6851 44.4129 35.7823C42.7707 36.8795 41.4907 38.4391 40.7349 40.2637C39.979 42.0884 39.7812 44.0962 40.1664 46.0333C40.5517 47.9704 41.5027 49.7497 42.8992 51.1463C44.2958 52.5429 46.0751 53.494 48.0121 53.8793C49.9492 54.2647 51.957 54.0669 53.7817 53.3111C55.6064 52.5554 57.166 51.2754 58.2633 49.6333C59.3606 47.9911 59.9462 46.0604 59.9462 44.0854C59.9462 41.4371 58.8942 38.8972 57.0216 37.0245C55.149 35.1518 52.6092 34.0997 49.9609 34.0996Z" fill="#FFB877"/>
<path d="M68.5066 42.659H65.6537C65.4642 42.6557 65.2761 42.6902 65.1001 42.7604C64.9242 42.8306 64.764 42.9351 64.6289 43.0679C64.4938 43.2007 64.3864 43.3591 64.3132 43.5338C64.2399 43.7085 64.2022 43.896 64.2022 44.0854C64.2022 44.2749 64.2399 44.4624 64.3132 44.6371C64.3864 44.8118 64.4938 44.9702 64.6289 45.103C64.764 45.2358 64.9242 45.3403 65.1001 45.4105C65.2761 45.4807 65.4642 45.5152 65.6537 45.5119H68.5066C68.8806 45.5054 69.2371 45.3523 69.4993 45.0855C69.7615 44.8186 69.9084 44.4595 69.9084 44.0854C69.9084 43.7114 69.7615 43.3522 69.4993 43.0854C69.2371 42.8186 68.8806 42.6655 68.5066 42.659ZM49.962 58.3506C49.5837 58.3507 49.2209 58.5011 48.9534 58.7686C48.6858 59.0361 48.5355 59.3989 48.5354 59.7773V62.6302C48.5321 62.8196 48.5665 63.0078 48.6368 63.1837C48.707 63.3596 48.8115 63.5198 48.9443 63.655C49.0771 63.7901 49.2354 63.8974 49.4101 63.9706C49.5848 64.0439 49.7724 64.0816 49.9618 64.0816C50.1513 64.0816 50.3388 64.0439 50.5135 63.9706C50.6882 63.8974 50.8466 63.7901 50.9793 63.655C51.1121 63.5198 51.2167 63.3596 51.2869 63.1837C51.3571 63.0078 51.3916 62.8196 51.3883 62.6302V59.7773C51.3882 59.3989 51.2378 59.0361 50.9703 58.7686C50.7028 58.5011 50.3399 58.3507 49.9616 58.3506M62.073 54.1708C61.7999 53.9383 61.4493 53.8172 61.0909 53.8316C60.7325 53.8459 60.3927 53.9948 60.1391 54.2485C59.8855 54.5022 59.7368 54.842 59.7226 55.2004C59.7083 55.5588 59.8296 55.9094 60.0623 56.1824L62.0734 58.194C62.3464 58.4278 62.6974 58.55 63.0565 58.5361C63.4156 58.5223 63.7562 58.3734 64.0103 58.1193C64.2644 57.8652 64.4133 57.5246 64.4271 57.1655C64.441 56.8064 64.3188 56.4554 64.085 56.1824L62.073 54.1708ZM61.0601 34.4138C61.2479 34.415 61.434 34.379 61.6079 34.308C61.7817 34.237 61.9398 34.1324 62.073 34.0001L64.0846 31.9889C64.3178 31.7159 64.4394 31.365 64.4253 31.0063C64.4111 30.6475 64.2623 30.3073 64.0084 30.0535C63.7545 29.7997 63.4143 29.6509 63.0555 29.6368C62.6968 29.6228 62.346 29.7445 62.073 29.9777L60.0623 31.9885C59.8611 32.188 59.7239 32.4429 59.6681 32.7208C59.6124 32.9986 59.6407 33.2867 59.7493 33.5484C59.858 33.8102 60.0421 34.0336 60.2782 34.1902C60.5144 34.3469 60.7918 34.4297 61.0752 34.428L61.0601 34.4138ZM67.6937 49.7059L65.0545 48.6362C64.8797 48.5184 64.6809 48.4408 64.4725 48.409C64.2641 48.3772 64.0513 48.392 63.8493 48.4523C63.6473 48.5126 63.4612 48.6169 63.3043 48.7577C63.1474 48.8985 63.0237 49.0724 62.9421 49.2667C62.8604 49.4611 62.8228 49.6711 62.832 49.8817C62.8412 50.0923 62.897 50.2983 62.9953 50.4847C63.0936 50.6712 63.2321 50.8336 63.4006 50.9602C63.5692 51.0868 63.7637 51.1744 63.9702 51.2168L66.6094 52.2869C66.7783 52.3679 66.9616 52.4148 67.1487 52.4249C67.3357 52.435 67.523 52.4082 67.6997 52.3459C67.8764 52.2837 68.0391 52.1872 68.1786 52.0621C68.318 51.937 68.4314 51.7856 68.5124 51.6166C68.5933 51.4477 68.6402 51.2644 68.6503 51.0773C68.6604 50.8902 68.6336 50.703 68.5713 50.5263C68.5091 50.3496 68.4126 50.1869 68.2875 50.0474C68.1624 49.908 68.011 49.7946 67.842 49.7136C67.7893 49.6881 67.735 49.6662 67.6795 49.6478L67.6937 49.7059ZM57.4085 57.9799C57.3442 57.8019 57.2452 57.6384 57.1172 57.4991C56.9891 57.3597 56.8346 57.2473 56.6627 57.1682C56.4908 57.0892 56.3048 57.0451 56.1157 57.0387C55.9266 57.0322 55.738 57.0634 55.5611 57.1306C55.3842 57.1977 55.2224 57.2994 55.0851 57.4296C54.9478 57.5599 54.8379 57.7162 54.7616 57.8894C54.6854 58.0626 54.6444 58.2492 54.641 58.4384C54.6376 58.6276 54.6718 58.8156 54.7418 58.9915C54.7547 59.0259 54.7689 59.0599 54.7848 59.0925L55.8975 61.7162C55.9618 61.8942 56.0608 62.0576 56.1888 62.197C56.3169 62.3363 56.4714 62.4488 56.6433 62.5278C56.8152 62.6069 57.0012 62.6509 57.1903 62.6574C57.3795 62.6638 57.568 62.6326 57.7449 62.5655C57.9219 62.4984 58.0837 62.3967 58.2209 62.2664C58.3582 62.1361 58.4681 61.9798 58.5444 61.8067C58.6206 61.6335 58.6616 61.4468 58.665 61.2576C58.6685 61.0684 58.6342 60.8804 58.5642 60.7046C58.5513 60.6702 58.5371 60.6362 58.5212 60.6035L57.4085 57.9799ZM63.1001 38.5072C63.2478 38.8551 63.5276 39.1302 63.878 39.272C64.2284 39.4138 64.6208 39.4106 64.9689 39.2633L67.5926 38.1506C67.9222 37.9912 68.1779 37.7111 68.3068 37.3683C68.4356 37.0256 68.4278 36.6464 68.2848 36.3093C68.1418 35.9722 67.8747 35.7029 67.5387 35.5573C67.2028 35.4117 66.8237 35.4008 66.4799 35.5269L63.8562 36.6396C63.5086 36.7873 63.2337 37.0669 63.092 37.417C62.9502 37.7672 62.9532 38.1592 63.1001 38.5072Z" fill="#003A70"/>
<path d="M89.5191 36.4539L79.6903 33.986C79.248 32.6964 78.7191 31.4382 78.1071 30.22L83.3282 21.5051C83.8212 20.6861 84.0259 19.7256 83.9095 18.7768C83.7931 17.828 83.3624 16.9454 82.686 16.2699L77.7647 11.3615C77.0901 10.688 76.21 10.2591 75.2639 10.1428C74.3178 10.0264 73.36 10.2293 72.5424 10.7193L63.8275 15.9404C62.6096 15.3318 61.3513 14.8076 60.0615 14.3714L57.6099 4.52835C57.3771 3.60051 56.8401 2.77741 56.0848 2.19045C55.3294 1.60348 54.3992 1.28649 53.4426 1.29007H46.4809C45.527 1.29012 44.6005 1.60877 43.8484 2.19544C43.0963 2.78212 42.5617 3.60319 42.3295 4.52835L39.8619 14.3572C38.5723 14.7996 37.3141 15.3287 36.0959 15.9408L27.394 10.7193C26.5765 10.2297 25.6189 10.0269 24.6731 10.1433C23.7273 10.2596 22.8474 10.6883 22.1729 11.3615L17.2374 16.2828C16.561 16.9583 16.1303 17.8409 16.0139 18.7897C15.8976 19.7385 16.1022 20.699 16.5953 21.518L21.8163 30.2363C21.2077 31.4591 20.6835 32.7221 20.2473 34.0165L10.4043 36.4681C9.48157 36.6998 8.6623 37.2322 8.07588 37.9813C7.48946 38.7304 7.16932 39.6536 7.16602 40.6049L7.16602 47.5662C7.16616 48.52 7.48486 49.4464 8.07152 50.1984C8.65819 50.9504 9.47921 51.4849 10.4043 51.7172L20.2331 54.1851C20.6755 55.4747 21.2046 56.7329 21.8168 57.9511L16.5953 66.6535C16.1022 67.4725 15.8976 68.433 16.0139 69.3818C16.1303 70.3307 16.561 71.2132 17.2374 71.8888L22.1587 76.8101C22.8333 77.4835 23.7134 77.9124 24.6595 78.0288C25.6056 78.1451 26.5634 77.9422 27.3811 77.4522L36.0972 72.2311C37.3151 72.8397 38.5735 73.364 39.8632 73.8002L42.3148 83.6432C42.5476 84.5708 43.0844 85.3938 43.8395 85.9807C44.5946 86.5676 45.5245 86.8848 46.4809 86.8815H53.4421C54.3959 86.8813 55.3223 86.5626 56.0744 85.976C56.8264 85.3893 57.3609 84.5683 57.5931 83.6432L60.0611 73.8144C61.3507 73.3721 62.6089 72.8431 63.8271 72.2311L72.5424 77.4522C73.3599 77.9419 74.3174 78.1446 75.2632 78.0283C76.209 77.9119 77.089 77.4832 77.7634 76.8101L82.6847 71.8888C83.3611 71.2132 83.7918 70.3307 83.9082 69.3818C84.0246 68.433 83.8199 67.4725 83.3269 66.6535L78.1071 57.9352C78.7157 56.7124 79.24 55.4494 79.6761 54.155L89.5191 51.7034C90.4419 51.4718 91.2611 50.9394 91.8475 50.1902C92.434 49.4411 92.7541 48.518 92.7574 47.5666V40.6049C92.7574 39.651 92.4387 38.7245 91.852 37.9724C91.2654 37.2203 90.4443 36.6857 89.5191 36.4535M89.9062 47.5662C89.9158 47.8921 89.8134 48.2115 89.6161 48.4711C89.4188 48.7307 89.1385 48.9148 88.8219 48.9929L78.9789 51.4445C78.5177 51.5623 78.0933 51.7938 77.7445 52.1177C77.3957 52.4417 77.1335 52.8478 76.9819 53.2991C76.5818 54.4703 76.1053 55.614 75.5553 56.7228C75.3462 57.1444 75.2447 57.6112 75.2597 58.0815C75.2747 58.5519 75.4058 59.0112 75.6413 59.4187L80.8624 68.1348C81.0254 68.4074 81.0928 68.7266 81.0538 69.0419C81.0149 69.3571 80.8718 69.6503 80.6473 69.875L75.7252 74.7989C75.5005 75.0234 75.2072 75.1665 74.892 75.2054C74.5768 75.2444 74.2575 75.177 73.9849 75.0139L65.2968 69.7645C64.8853 69.5193 64.4187 69.3816 63.9401 69.3642C63.4614 69.3468 62.9861 69.4501 62.5578 69.6647C61.4488 70.2141 60.3052 70.6907 59.1342 71.0914C58.6829 71.2429 58.2768 71.5051 57.9528 71.8539C57.6289 72.2027 57.3974 72.6271 57.2796 73.0883L54.828 82.9314C54.7499 83.2479 54.5658 83.5282 54.3062 83.7255C54.0466 83.9228 53.7272 84.0252 53.4013 84.0157H46.4809C46.1549 84.0252 45.8356 83.9228 45.576 83.7255C45.3164 83.5282 45.1322 83.2479 45.0542 82.9314L42.6026 73.0883C42.4847 72.6271 42.2533 72.2027 41.9293 71.8539C41.6054 71.5051 41.1992 71.2429 40.748 71.0914C39.577 70.6907 38.4333 70.2141 37.3243 69.6647C36.9007 69.452 36.4303 69.3497 35.9567 69.3671C35.483 69.3846 35.0214 69.5212 34.6146 69.7645L25.8963 74.9843C25.6237 75.1473 25.3045 75.2147 24.9893 75.1758C24.674 75.1368 24.3808 74.9937 24.1561 74.7692L19.2344 69.8492C19.0099 69.6245 18.8668 69.3313 18.8279 69.0161C18.7889 68.7008 18.8563 68.3816 19.0193 68.109L24.283 59.4208C24.5282 59.0094 24.6658 58.5428 24.6833 58.0641C24.7007 57.5855 24.5974 57.1101 24.3828 56.6819C23.8334 55.5729 23.3568 54.4292 22.9561 53.2582C22.8046 52.807 22.5424 52.4008 22.1936 52.0769C21.8448 51.7529 21.4204 51.5215 20.9591 51.4036L11.1161 48.952C10.7995 48.874 10.5192 48.6898 10.3219 48.4302C10.1246 48.1706 10.0222 47.8513 10.0318 47.5253V40.6049C10.0222 40.279 10.1246 39.9596 10.3219 39.7C10.5192 39.4404 10.7995 39.2563 11.1161 39.1782L20.9591 36.7266C21.4204 36.6088 21.8448 36.3773 22.1936 36.0534C22.5424 35.7294 22.8046 35.3233 22.9561 34.872C23.3562 33.7008 23.8328 32.5571 24.3828 31.4483C24.59 31.0257 24.6894 30.5583 24.672 30.0878C24.6546 29.6174 24.5209 29.1586 24.283 28.7524L19.0632 20.0346C18.9002 19.762 18.8328 19.4428 18.8717 19.1275C18.9107 18.8123 19.0538 18.5191 19.2783 18.2944L24.1983 13.3726C24.423 13.1481 24.7162 13.0051 25.0314 12.9661C25.3467 12.9271 25.6659 12.9945 25.9385 13.1576L34.6267 18.4083C35.0381 18.6535 35.5047 18.7912 35.9834 18.8086C36.462 18.8261 36.9374 18.7227 37.3656 18.5081C38.4746 17.9587 39.6183 17.4822 40.7892 17.0815C41.2405 16.9299 41.6467 16.6677 41.9706 16.3189C42.2946 15.9701 42.526 15.5457 42.6439 15.0845L45.0955 5.24147C45.1735 4.92488 45.3577 4.64458 45.6173 4.44728C45.8769 4.24999 46.1962 4.14759 46.5221 4.15717H53.4834C53.8094 4.14759 54.1287 4.24999 54.3883 4.44728C54.6479 4.64458 54.8321 4.92488 54.9101 5.24147L57.3617 15.0845C57.4796 15.5457 57.711 15.9701 58.035 16.3189C58.3589 16.6677 58.7651 16.9299 59.2163 17.0815C60.3873 17.4822 61.531 17.9587 62.64 18.5081C63.0572 18.7078 63.5168 18.803 63.979 18.7856C64.4412 18.7682 64.8923 18.6388 65.2933 18.4083L74.0095 13.1873C74.2821 13.0242 74.6013 12.9568 74.9165 12.9958C75.2318 13.0347 75.525 13.1778 75.7497 13.4023L80.6748 18.3223C80.8993 18.547 81.0424 18.8402 81.0814 19.1555C81.1203 19.4707 81.0529 19.7899 80.8899 20.0625L75.6391 28.7507C75.394 29.1622 75.2563 29.6287 75.2389 30.1074C75.2214 30.5861 75.3248 31.0614 75.5394 31.4896C76.0887 32.5987 76.5653 33.7423 76.966 34.9133C77.1176 35.3646 77.3797 35.7707 77.7286 36.0947C78.0774 36.4186 78.5018 36.6501 78.963 36.7679L88.806 39.2195C89.1226 39.2976 89.4029 39.4817 89.6002 39.7413C89.7975 40.0009 89.8999 40.3203 89.8903 40.6462L89.9062 47.5662Z" fill="#003A70"/>
<path d="M49.9624 32.6738C47.7053 32.6739 45.499 33.3433 43.6223 34.5973C41.7457 35.8513 40.283 37.6337 39.4194 39.719C38.5557 41.8043 38.3297 44.0988 38.7701 46.3125C39.2105 48.5262 40.2974 50.5596 41.8934 52.1556C43.4895 53.7515 45.5229 54.8384 47.7366 55.2787C49.9503 55.719 52.2449 55.4929 54.3301 54.6292C56.4154 53.7654 58.1977 52.3027 59.4516 50.426C60.7056 48.5493 61.3749 46.3429 61.3749 44.0859C61.3746 41.0592 60.1722 38.1566 58.032 36.0164C55.8917 33.8763 52.9891 32.6739 49.9624 32.6738ZM49.9624 52.645C48.2696 52.645 46.6147 52.143 45.2072 51.2025C43.7997 50.262 42.7026 48.9253 42.0548 47.3613C41.407 45.7973 41.2375 44.0764 41.5677 42.4161C41.898 40.7558 42.7132 39.2307 43.9102 38.0336C45.1072 36.8366 46.6323 36.0214 48.2926 35.6912C49.9529 35.3609 51.6739 35.5304 53.2378 36.1783C54.8018 36.8261 56.1386 37.9231 57.0791 39.3307C58.0196 40.7382 58.5215 42.393 58.5215 44.0859C58.5215 46.3559 57.6198 48.5329 56.0146 50.1381C54.4095 51.7432 52.2324 52.645 49.9624 52.645Z" fill="#003A70"/>
<path d="M41.9591 59.2214C38.892 57.5995 36.3901 55.0839 34.785 52.0079C33.1799 48.9319 32.5474 45.4408 32.9713 41.9972C33.3952 38.5537 34.8554 35.3202 37.1586 32.7253C39.4617 30.1304 42.499 28.2966 45.8679 27.467C46.2387 27.3904 46.5638 27.1696 46.7718 26.8533C46.9798 26.537 47.0536 26.151 46.977 25.7803C46.9004 25.4096 46.6796 25.0845 46.3633 24.8765C46.047 24.6685 45.661 24.5947 45.2903 24.6713C45.2546 24.6799 45.2189 24.6885 45.1832 24.6984C41.24 25.6571 37.6824 27.7942 34.9841 30.8253C32.2859 33.8563 30.575 37.6374 30.0793 41.6651C29.5836 45.6928 30.3266 49.7759 32.2094 53.3708C34.0922 56.9656 37.0254 59.9016 40.6185 61.7878C40.9529 61.9607 41.342 61.9948 41.7013 61.8826C42.0606 61.7704 42.3612 61.5209 42.5378 61.1885C42.7144 60.856 42.7527 60.4673 42.6444 60.1067C42.5362 59.7462 42.2901 59.4429 41.9595 59.2627L41.9591 59.2214ZM52.2585 27.1246C53.2851 27.2611 54.2973 27.4903 55.2826 27.8093C55.6363 27.9071 56.0142 27.8647 56.3375 27.691C56.6609 27.5173 56.9048 27.2257 57.0187 26.8768C57.1326 26.5279 57.1076 26.1485 56.9489 25.8175C56.7903 25.4865 56.5102 25.2294 56.1669 25.0997C55.0189 24.7277 53.8396 24.4604 52.6434 24.301C52.4543 24.2727 52.2614 24.2824 52.076 24.3296C51.8907 24.3767 51.7166 24.4604 51.564 24.5756C51.4113 24.6908 51.2832 24.8353 51.187 25.0006C51.0909 25.166 51.0287 25.3488 51.004 25.5385C50.9794 25.7281 50.9928 25.9208 51.0435 26.1052C51.0942 26.2896 51.1811 26.462 51.2993 26.6125C51.4174 26.7629 51.5643 26.8882 51.7314 26.9812C51.8986 27.0741 52.0826 27.1328 52.2727 27.1539L52.2585 27.1246ZM49.9617 41.2321C49.3974 41.2321 48.8459 41.3995 48.3767 41.7129C47.9075 42.0264 47.5419 42.472 47.326 42.9933C47.11 43.5146 47.0535 44.0882 47.1636 44.6416C47.2737 45.195 47.5454 45.7034 47.9444 46.1024C48.3434 46.5013 48.8517 46.7731 49.4051 46.8831C49.9585 46.9932 50.5322 46.9367 51.0535 46.7208C51.5748 46.5049 52.0203 46.1392 52.3338 45.67C52.6473 45.2009 52.8146 44.6493 52.8146 44.085C52.8147 43.7104 52.7409 43.3394 52.5975 42.9932C52.4542 42.6471 52.2441 42.3325 51.9791 42.0676C51.7142 41.8027 51.3997 41.5925 51.0535 41.4492C50.7074 41.3058 50.3364 41.2321 49.9617 41.2321Z" fill="#003A70"/>
<path d="M50.6744 11.2754L52.4434 14.5012L55.6692 16.2702L52.4434 18.0393L50.6744 21.2651L48.9053 18.0393L45.6795 16.2702L48.9053 14.5012L50.6744 11.2754ZM30.5883 58.3507L31.8008 60.576L34.0404 61.8027L31.8017 63.0173L30.5888 65.2539L29.3621 63.0173L27.1367 61.8027L29.3621 60.576L30.5883 58.3507ZM70.4309 25.5408L71.2726 27.0672L72.7849 27.8947L71.2726 28.7223L70.4309 30.2487L69.6034 28.7223L68.0769 27.8947L69.6034 27.0672L70.4309 25.5408Z" fill="#FFF8F8"/>
<path d="M7.16667 16.5693L5.5929 21.4128H0.5L4.62043 24.4063L3.04624 29.2502L7.16667 26.2566L11.2871 29.2502L9.7129 24.4063L13.8333 21.4128H8.74043L7.16667 16.5693Z" fill="#FFB877"/>
<path d="M93.8327 68.498L92.2589 73.3415H87.166L91.2864 76.335L89.7123 81.1789L93.8327 78.1854L97.9531 81.1789L96.3789 76.335L100.499 73.3415H95.4064L93.8327 68.498Z" fill="#FFB877"/>
<path d="M70.9591 83.9814L68.5406 91.4223H60.7148L67.046 96.0245L64.6288 103.465L70.96 98.8632L77.2912 103.465L74.8718 96.0245L81.203 91.4223H73.3772L70.9591 83.9814Z" fill="#FFB877"/>
</g>
<defs>
<clipPath id="clip0_2655_17824">
<rect width="100" height="103.468" fill="white" transform="translate(0.5)"/>
</clipPath>
</defs>
</svg>
