<svg width="25" height="25" viewBox="0 0 25 25" fill="none" xmlns="http://www.w3.org/2000/svg">
<path d="M21.5195 10.543H13.1695C12.3495 8.21297 10.1295 6.54297 7.51953 6.54297C4.20953 6.54297 1.51953 9.23297 1.51953 12.543C1.51953 15.853 4.20953 18.543 7.51953 18.543C10.1295 18.543 12.3495 16.873 13.1695 14.543H13.5195L15.5195 16.543L17.5195 14.543L19.5195 16.543L23.5195 12.503L21.5195 10.543ZM7.51953 15.543C5.86953 15.543 4.51953 14.193 4.51953 12.543C4.51953 10.893 5.86953 9.54297 7.51953 9.54297C9.16953 9.54297 10.5195 10.893 10.5195 12.543C10.5195 14.193 9.16953 15.543 7.51953 15.543Z" fill="#323232"/>
</svg>
