<svg width="25" height="25" viewBox="0 0 25 25" fill="none" xmlns="http://www.w3.org/2000/svg">
<path d="M12.5195 6.44297C13.6795 6.44297 14.6195 7.38297 14.6195 8.54297C14.6195 9.70297 13.6795 10.643 12.5195 10.643C11.3595 10.643 10.4195 9.70297 10.4195 8.54297C10.4195 7.38297 11.3595 6.44297 12.5195 6.44297ZM12.5195 15.443C15.4895 15.443 18.6195 16.903 18.6195 17.543V18.643H6.41953V17.543C6.41953 16.903 9.54953 15.443 12.5195 15.443ZM12.5195 4.54297C10.3095 4.54297 8.51953 6.33297 8.51953 8.54297C8.51953 10.753 10.3095 12.543 12.5195 12.543C14.7295 12.543 16.5195 10.753 16.5195 8.54297C16.5195 6.33297 14.7295 4.54297 12.5195 4.54297ZM12.5195 13.543C9.84953 13.543 4.51953 14.883 4.51953 17.543V20.543H20.5195V17.543C20.5195 14.883 15.1895 13.543 12.5195 13.543Z" fill="#323232"/>
</svg>
