<svg width="152" height="100" viewBox="0 0 152 100" fill="none" xmlns="http://www.w3.org/2000/svg">
<g clip-path="url(#clip0_2300_10187)">
<path d="M38.7157 49.6709C39.8598 49.6766 40.9861 49.9543 42.0018 50.481C42.7094 48.9434 43.1907 47.3114 43.4307 45.6358C43.5288 44.73 43.8112 43.8538 44.2606 43.0612C42.4978 42.3681 40.6073 42.0596 38.7157 42.1563C35.2483 41.9769 31.8471 43.1535 29.2318 45.4373C26.6165 47.7211 24.9924 50.9327 24.7031 54.3927C24.8443 58.1852 26.2635 61.8187 28.7302 64.7029H13.1278V64.1897C11.449 64.4486 9.75331 64.5835 8.05464 64.5933C7.19391 64.6071 6.34707 64.3754 5.61328 63.9253V72.2145H28.7134C30.2863 72.344 31.8615 71.9922 33.2298 71.2058C34.5982 70.4194 35.6951 69.2356 36.375 67.8113C36.8852 66.3898 36.9573 64.848 36.5821 63.3851C36.2068 61.9222 35.4015 60.6055 34.2701 59.605C29.3825 54.9315 33.8725 49.6709 38.7157 49.6709Z" fill="#F8F9FA"/>
<path d="M65.7306 27.602C67.9951 26.0297 70.5494 24.9229 73.2451 24.3455V4.58276H64.1665C64.1665 4.59757 64.1665 4.61039 64.1665 4.6252C64.0978 6.81666 63.9038 9.0024 63.5853 11.1717C63.5556 11.4802 63.5228 11.7891 63.4866 12.0983H65.7286L65.7306 27.602Z" fill="#F8F9FA"/>
<path d="M83.5551 23.6559C82.3363 23.7056 81.1266 23.8882 79.9474 24.2006C81.4637 24.4875 82.8249 25.3137 83.7794 26.5263C84.7339 27.7389 85.2172 29.2561 85.14 30.7974C85.1247 31.1324 85.0848 31.4658 85.0205 31.795C86.0196 32.4197 86.8429 33.2888 87.4127 34.3201C87.9825 35.3514 88.2799 36.511 88.277 37.6892C88.277 42.6233 83.0173 47.0106 78.3507 42.1299C77.7355 41.4428 76.9998 40.8742 76.1797 40.4523C75.5785 40.4261 74.9898 40.272 74.4528 40.0003C74.2555 40.0743 74.0581 40.1513 73.8608 40.2214C73.2842 40.4509 72.6634 40.5477 72.0443 40.5047C71.4253 40.4616 70.8238 40.2798 70.2846 39.9727C70.2333 39.9905 70.18 39.9974 70.1287 40.0151C68.706 40.698 67.5239 41.7961 66.7383 43.1647C65.9528 44.5332 65.6006 46.1078 65.7285 47.6807V64.6932H48.7021C49.3156 63.9758 49.8675 63.2079 50.3521 62.3979C49.538 62.4758 48.7228 62.539 47.9235 62.6554C46.8798 62.8859 45.7906 62.7934 44.8008 62.3901C43.8109 61.9868 42.9671 61.2919 42.3816 60.3976C41.531 61.4078 40.9605 62.6236 40.7272 63.9235C40.494 65.2233 40.6061 66.5616 41.0524 67.8046C41.7334 69.2286 42.8309 70.4122 44.1997 71.1985C45.5684 71.9848 47.1437 72.3368 48.7169 72.2077H73.245V47.6658C76.1302 50.1309 79.763 51.5498 83.5551 51.693C86.9446 51.229 90.0513 49.5531 92.3003 46.9752C94.5494 44.3973 95.7886 41.092 95.7886 37.671C95.7886 34.2499 94.5494 30.9446 92.3003 28.3667C90.0513 25.7889 86.9446 24.1129 83.5551 23.6489V23.6559Z" fill="#F8F9FA"/>
<path d="M114.988 59.902V47.41C114.988 44.7081 117.045 43.9947 118.717 45.6722C119.536 46.4883 120.217 47.5669 122.229 47.5669C124.464 47.5669 127.325 45.2864 127.325 41.3984C127.325 37.5103 124.463 35.2299 122.229 35.2299C120.217 35.2299 119.536 36.3084 118.717 37.1245C117.045 38.8021 114.988 38.0886 114.988 35.3868V25.9766H152V59.902H137.967C135.09 59.902 133.782 61.6782 133.782 63.3242C133.817 63.9696 133.991 64.5999 134.292 65.1721C134.592 65.7442 135.013 66.2449 135.524 66.6399C135.86 66.8624 136.133 67.1673 136.318 67.5254C136.502 67.8835 136.592 68.2829 136.578 68.6855C136.578 70.1371 134.93 72.2381 131.952 72.2381C128.974 72.2381 127.325 70.1361 127.325 68.6855C127.311 68.2828 127.401 67.8833 127.585 67.5252C127.77 67.167 128.044 66.8622 128.38 66.6399C128.891 66.2447 129.311 65.744 129.612 65.1719C129.912 64.5997 130.085 63.9695 130.12 63.3242C130.12 61.6763 128.813 59.902 125.936 59.902H114.988ZM108.25 79.4605C108.027 79.1251 107.722 78.8522 107.365 78.6679C107.007 78.4836 106.607 78.394 106.205 78.4076C104.753 78.4076 102.653 80.0555 102.653 83.0347C102.653 86.0139 104.755 87.6608 106.205 87.6608C106.608 87.6746 107.007 87.5851 107.365 87.4008C107.723 87.2164 108.027 86.9435 108.25 86.6079C108.645 86.0964 109.147 85.6763 109.719 85.376C110.292 85.0758 110.923 84.9026 111.568 84.8682C113.215 84.8682 114.99 86.1787 114.99 89.0532V100.007H152.002V62.9887H137.967C136.322 62.9887 136.605 63.412 137.632 64.389C138.277 64.9021 138.796 65.5565 139.148 66.3019C139.499 67.0472 139.675 67.8634 139.662 68.6875C139.662 71.8917 136.566 75.3258 131.952 75.3258C127.338 75.3258 124.241 71.8917 124.241 68.6875C124.227 67.8634 124.403 67.0472 124.755 66.3019C125.107 65.5565 125.626 64.9021 126.271 64.389C127.292 63.416 127.59 62.9887 125.936 62.9887H114.983V77.0211C114.983 79.8966 113.207 81.2062 111.562 81.2062C110.917 81.1701 110.287 80.9957 109.716 80.6949C109.144 80.394 108.644 79.9737 108.25 79.4624V79.4605ZM111.901 99.9979V89.0444C111.901 87.4013 111.479 87.6796 110.5 88.7088C109.987 89.3543 109.333 89.8732 108.588 90.2256C107.843 90.5779 107.026 90.7541 106.202 90.7407C102.997 90.7407 99.563 87.6421 99.563 83.0298C99.563 78.4174 102.997 75.3189 106.202 75.3189C107.026 75.3052 107.843 75.4814 108.588 75.8337C109.333 76.186 109.987 76.7051 110.5 77.3507C111.479 78.3711 111.901 78.6641 111.901 77.0142V62.9818H102.494C99.7889 62.9818 99.0725 60.9263 100.753 59.2527C101.569 58.4336 102.648 57.7527 102.648 55.7406C102.648 53.5055 100.367 50.6448 96.4792 50.6448C92.5912 50.6448 90.3107 53.5065 90.3107 55.7406C90.3107 57.7527 91.3892 58.4336 92.2053 59.2527C93.8829 60.9302 93.1694 62.9818 90.4636 62.9818H77.9766V99.993L111.901 99.9979Z" fill="#DDDFE3"/>
<path d="M67.9872 23.1001C70.8716 20.6334 74.5048 19.2139 78.2974 19.072C81.6864 19.5367 84.7924 21.2131 87.0408 23.791C89.2893 26.3688 90.5281 29.6738 90.5281 33.0945C90.5281 36.5152 89.2893 39.8201 87.0408 42.398C84.7924 44.9759 81.6864 46.6522 78.2974 47.117C74.5051 46.9735 70.8724 45.5542 67.9872 43.0889V67.6317H43.4592C41.886 67.7599 40.3109 67.4074 38.9423 66.621C37.5738 65.8346 36.4762 64.6513 35.7946 63.2276C35.284 61.8051 35.2122 60.2621 35.5888 58.7984C35.9653 57.3347 36.7727 56.0178 37.9064 55.0183C42.7832 50.3478 38.3998 45.0881 33.4579 45.0881C28.6146 45.0881 24.1247 50.3478 29.0173 55.0223C30.1488 56.0224 30.9542 57.339 31.3293 58.8019C31.7044 60.2647 31.6319 61.8064 31.1211 63.2276C30.4418 64.6521 29.3451 65.8363 27.9769 66.623C26.6086 67.4096 25.0335 67.7614 23.4606 67.6317H0.355469V0.00292969H67.9872V23.1001ZM7.87 60.1172H23.4704C21.0038 57.2329 19.5842 53.5996 19.4423 49.807C19.7319 46.3472 21.3561 43.1356 23.9713 40.8519C26.5865 38.5682 29.9876 37.3914 33.4549 37.5706C36.9223 37.3914 40.3234 38.5682 42.9386 40.8519C45.5538 43.1356 47.178 46.3472 47.4676 49.807C47.3245 53.5994 45.9052 57.2323 43.4394 60.1172H60.4727V43.1037C60.3442 41.5309 60.6961 39.9562 61.4818 38.5876C62.2674 37.2191 63.4499 36.1212 64.8729 35.4391C66.2967 34.929 67.8407 34.8576 69.3055 35.2341C70.7703 35.6105 72.0886 36.4175 73.09 37.5509C77.7566 42.4277 83.0163 38.0443 83.0163 33.1053C83.0163 28.2581 77.7566 23.7682 73.0821 28.6568C72.0817 29.7892 70.7646 30.5953 69.3011 30.9711C67.8376 31.3469 66.2951 31.2749 64.8729 30.7646C63.4499 30.0825 62.2674 28.9847 61.4818 27.6161C60.6961 26.2476 60.3442 24.6729 60.4727 23.1001V7.5145H7.87V60.1172Z" fill="#003057"/>
<path d="M34.2226 9.49097L37.2284 18.7827H46.9978L39.1034 24.524L42.1092 33.8157L34.2147 28.0745L26.3203 33.8157L29.3261 24.524L21.4316 18.7827H31.201L34.2226 9.49097Z" fill="#EB7100"/>
</g>
<defs>
<clipPath id="clip0_2300_10187">
<rect width="151.645" height="100" fill="white" transform="translate(0.355469)"/>
</clipPath>
</defs>
</svg>
