<svg width="15" height="14" viewBox="0 0 15 14" fill="none" xmlns="http://www.w3.org/2000/svg">
<g clip-path="url(#clip0_2003_11586)">
<path d="M14.0391 7C14.0391 10.8675 10.9092 14 7.04508 14C3.18094 14 0.0390625 10.8675 0.0390625 7C0.0390625 3.13253 3.1689 0 7.03304 0C10.8972 0 14.027 3.13253 14.027 7H14.0391ZM0.9419 7C0.9419 10.3735 3.67449 13.0964 7.03304 13.0964C10.3916 13.0964 13.1242 10.3614 13.1242 7C13.1242 3.63855 10.3796 0.903615 7.03304 0.903615C3.68653 0.903615 0.9419 3.63855 0.9419 7ZM6.80432 8.6988C6.61172 8.6988 6.46727 8.54217 6.46727 8.36145C6.46727 6.36145 8.64611 6.55422 8.64611 5.31325C8.64611 4.74699 8.14052 4.18072 7.02101 4.18072C6.20243 4.18072 5.76907 4.45783 5.34775 4.98795C5.23941 5.13253 5.03476 5.15663 4.89031 5.06024L4.51714 4.80723C4.36064 4.6988 4.32453 4.46988 4.44491 4.3253C5.0468 3.55422 5.75703 3.06024 7.02101 3.06024C8.50166 3.06024 9.76563 3.90361 9.76563 5.3253C9.76563 7.22892 7.58678 7.13253 7.58678 8.36145C7.58678 8.55422 7.43029 8.71084 7.24972 8.71084H6.79229L6.80432 8.6988ZM7.82754 10.1687C7.82754 10.6024 7.47844 10.9639 7.03304 10.9639C6.58764 10.9639 6.23855 10.6145 6.23855 10.1687C6.23855 9.72289 6.58764 9.37349 7.03304 9.37349C7.47844 9.37349 7.82754 9.72289 7.82754 10.1687Z" fill="black"/>
</g>
<defs>
<clipPath id="clip0_2003_11586">
<rect width="14" height="14" fill="white" transform="translate(0.0390625)"/>
</clipPath>
</defs>
</svg>
