<svg width="259" height="40" viewBox="0 0 259 40" fill="none" xmlns="http://www.w3.org/2000/svg">
<g clip-path="url(#clip0_2003_12502)">
<path d="M64.8125 12.6006H68.1047V17.879H71.8527C72.51 17.8259 73.1707 17.9253 73.7833 18.1695C74.3958 18.4137 74.9437 18.7961 75.3842 19.2869C76.2006 20.397 76.6051 21.7568 76.5281 23.1327V30.5981H73.2368V23.5341C73.2635 23.2218 73.2236 22.9074 73.1196 22.6117C73.0157 22.3159 72.85 22.0457 72.6337 21.8188C72.4437 21.5943 72.2039 21.4171 71.9335 21.3015C71.663 21.1858 71.3693 21.1348 71.0756 21.1525H68.2352L68.1097 30.5961H64.8174L64.8125 12.6006Z" fill="#EB7100"/>
<path d="M62.4204 25.7932C62.4083 27.0238 61.9233 28.2026 61.0659 29.0854L61.057 29.0943C60.6032 29.5691 60.0579 29.947 59.454 30.2051C58.8501 30.4632 58.2001 30.5962 57.5433 30.5961H50.1699V27.3335H57.5433C57.9483 27.3298 58.3373 27.1751 58.6342 26.8997C58.9312 26.6244 59.1147 26.2481 59.1489 25.8446L59.1232 25.806C59.126 25.4631 59.0552 25.1236 58.9156 24.8104C58.8518 24.6698 58.7718 24.5371 58.6773 24.415C58.5512 24.2445 58.4045 24.0904 58.2403 23.9562C58.07 23.8188 57.8906 23.693 57.7035 23.5796C57.5255 23.4678 57.3228 23.3542 57.1103 23.2464C56.5564 22.9786 55.9888 22.7404 55.4098 22.5326L54.2501 22.1084C53.748 21.9228 53.2641 21.6911 52.8047 21.4164C52.3194 21.1271 51.8755 20.7736 51.4848 20.3654C51.1731 20.0405 50.907 19.6746 50.6939 19.2779C50.6376 19.1791 50.5822 19.0703 50.5337 18.9616C50.2971 18.4328 50.1748 17.8601 50.1749 17.2808C50.1688 16.8534 50.2271 16.4274 50.3479 16.0173C50.5629 15.2707 50.9632 14.5905 51.5115 14.04C51.9567 13.5884 52.4866 13.229 53.0708 12.9825C53.6551 12.736 54.2823 12.6072 54.9165 12.6035H61.5405V15.8661H54.9165C54.5093 15.8732 54.1211 16.0392 53.8349 16.3288L53.826 16.3377C53.7057 16.4549 53.6097 16.5947 53.5435 16.7491C53.4774 16.9035 53.4423 17.0694 53.4404 17.2373C53.4374 17.3568 53.4579 17.4757 53.5007 17.5873C53.5842 17.7738 53.6985 17.945 53.8388 18.0935C54.0255 18.2906 54.2396 18.4598 54.4745 18.5958C54.7568 18.7678 55.0548 18.9128 55.3643 19.0288L56.5369 19.4529C57.2294 19.7042 57.9082 19.9916 58.5705 20.314C59.189 20.613 59.7712 20.9818 60.3056 21.4134C60.3185 21.4223 60.3274 21.4312 60.3402 21.4391C60.6083 21.6647 60.8573 21.912 61.0847 22.1786C61.1321 22.2221 61.1756 22.2696 61.2181 22.3131C61.8409 22.9829 62.236 23.8324 62.3472 24.7402C62.4012 25.0879 62.426 25.4394 62.4213 25.7912" fill="#EB7100"/>
<path d="M143.847 18.2429C143.197 18.0602 142.524 17.9714 141.848 17.979C140.96 17.9691 140.081 18.1491 139.269 18.5069C138.938 18.6584 138.621 18.837 138.321 19.0408V18.2815H135.027V30.5962H138.321V24.4823C138.321 24.3746 138.321 24.2658 138.333 24.162C138.359 23.812 138.428 23.4664 138.537 23.1328C138.601 22.9326 138.682 22.7384 138.779 22.5525C138.814 22.4842 138.854 22.4182 138.897 22.3548C139.014 22.1736 139.151 22.0052 139.303 21.8525C139.431 21.7203 139.572 21.6014 139.723 21.4976C139.91 21.3684 140.108 21.2582 140.317 21.1684C140.336 21.1573 140.356 21.1486 140.377 21.1427C140.679 21.0438 140.995 20.9941 141.312 20.9954C141.613 20.9909 141.914 21.0201 142.208 21.0824C142.439 21.1374 142.662 21.2187 142.874 21.3246L142.905 21.2168C142.908 21.2164 142.912 21.2171 142.915 21.2187C142.918 21.2202 142.92 21.2227 142.922 21.2257L143.056 20.8668L144.021 18.3052C143.965 18.2835 143.908 18.2617 143.848 18.2449" fill="#EB7100"/>
<path d="M104.614 21.7006C104.324 20.9488 103.894 20.2592 103.346 19.6689C102.802 19.0878 102.145 18.6229 101.417 18.3026C100.718 18.0029 99.9637 17.8521 99.2031 17.8596H93.2148V35.6406H96.4408V30.7141H99.2031C99.9637 30.7217 100.718 30.5709 101.417 30.2712C102.146 29.9506 102.802 29.4855 103.346 28.9039C103.894 28.3137 104.325 27.6241 104.614 26.8722C105.238 25.2048 105.238 23.368 104.614 21.7006ZM101.585 25.585C101.416 25.9593 101.173 26.2955 100.871 26.5737C100.572 26.8443 100.225 27.0569 99.8487 27.2005C99.4598 27.35 99.0464 27.4258 98.6297 27.4239H96.4408V21.1509H98.6297C99.0465 21.1493 99.4599 21.2254 99.8487 21.3753C100.225 21.5189 100.572 21.7315 100.871 22.0021C101.345 22.4531 101.667 23.0393 101.795 23.6806C101.923 24.3219 101.849 24.987 101.585 25.585Z" fill="#EB7100"/>
<path d="M118.053 21.7006C117.763 20.9488 117.332 20.2592 116.784 19.6689C116.24 19.0878 115.584 18.623 114.855 18.3026C114.156 18.0029 113.402 17.8521 112.642 17.8596H106.653V35.6406H109.879V30.7141H112.642C113.402 30.7217 114.156 30.5709 114.855 30.2712C115.584 29.9506 116.24 29.4855 116.784 28.9039C117.333 28.3137 117.763 27.6241 118.053 26.8722C118.676 25.2048 118.676 23.368 118.053 21.7006ZM115.023 25.585C114.854 25.9593 114.612 26.2955 114.309 26.5737C114.011 26.8443 113.664 27.0569 113.287 27.2005C112.898 27.35 112.485 27.4258 112.068 27.4239H109.879V21.1509H112.068C112.485 21.1493 112.898 21.2254 113.287 21.3753C113.664 21.5189 114.011 21.7315 114.309 22.0021C114.783 22.4531 115.106 23.0393 115.233 23.6806C115.361 24.3219 115.288 24.987 115.023 25.585Z" fill="#EB7100"/>
<path d="M90.8206 21.8C90.516 21.0248 90.0555 20.3203 89.4676 19.7302C88.8797 19.1401 88.1769 18.677 87.4028 18.3694C85.7127 17.7154 83.8393 17.7154 82.1491 18.3694C81.375 18.677 80.6723 19.1401 80.0844 19.7302C79.4965 20.3203 79.036 21.0248 78.7314 21.8C78.0778 23.4988 78.0778 25.3797 78.7314 27.0785C79.0361 27.8536 79.4967 28.5581 80.0845 29.1481C80.6724 29.7382 81.3751 30.2014 82.1491 30.5091C83.8394 31.1626 85.7126 31.1626 87.4028 30.5091C88.1769 30.2014 88.8796 29.7382 89.4674 29.1481C90.0553 28.5581 90.5159 27.8536 90.8206 27.0785C91.4746 25.3798 91.4746 23.4987 90.8206 21.8ZM87.7943 25.8535C87.6503 26.223 87.4327 26.5593 87.1547 26.8422C86.8717 27.1215 86.5355 27.341 86.166 27.4878C85.2722 27.8143 84.2917 27.8143 83.3978 27.4878C83.0283 27.3416 82.692 27.1223 82.4091 26.8432C82.1307 26.5605 81.9127 26.2241 81.7685 25.8545C81.4347 24.9443 81.4347 23.9451 81.7685 23.0349C81.9097 22.6622 82.1281 22.3235 82.4094 22.0412C82.6907 21.7589 83.0286 21.5392 83.4008 21.3967C84.2947 21.0705 85.2751 21.0705 86.169 21.3967C86.5385 21.5429 86.8747 21.7622 87.1577 22.0413C87.436 22.324 87.6539 22.6604 87.7983 23.0299C88.1316 23.9403 88.1316 24.9392 87.7983 25.8496" fill="#EB7100"/>
<path d="M39.2337 39.9998L39.202 39.9781L24.9189 30.7114C25.7639 29.8599 26.6069 29.036 27.4479 28.2398L32.0946 31.2611L30.0392 25.8848C30.9975 25.0471 31.9552 24.2473 32.9122 23.4854L39.2337 39.9998Z" fill="#003057"/>
<path d="M36.8857 12.6004C36.5595 12.7289 36.2283 12.8624 35.8971 13.0018C33.9552 13.8273 32.0723 14.7852 30.2617 15.8689H26.2083L23.9255 9.90929L21.6446 15.8738H5.04214L0 12.6004H19.0969L23.9255 0L28.7491 12.6004H36.8857Z" fill="#003057"/>
<path d="M47.6904 12.3829C45.6033 13.2441 33.1571 16.8774 16.527 36.6376C16.3451 36.8541 13.6075 39.916 10.3212 39.916H8.25785H7.53613C10.0641 33.3325 12.8225 26.2221 13.4186 24.6976C13.739 24.0048 13.8035 23.2209 13.6008 22.485C13.3981 21.7491 12.9413 21.1088 12.3113 20.6777L12.1423 20.5641H15.6362C16.2777 20.5569 16.899 20.7884 17.3794 21.2135C17.8599 21.6386 18.1653 22.2271 18.2363 22.8647C18.2363 22.924 18.2443 22.9843 18.2462 23.0446C18.2563 23.5029 18.1764 23.9587 18.0109 24.3862C17.22 26.5039 16.1671 29.2533 15.48 31.0418C15.6955 30.7917 15.9842 30.4635 16.2571 30.1807C23.3111 22.4692 31.3044 17.3282 36.7519 15.0543C40.0027 13.5733 43.4809 12.6533 47.0388 12.3335C47.2574 12.3299 47.4758 12.3464 47.6913 12.3829" fill="#EB7100"/>
<path d="M154.284 12.6016H151.912C151.471 12.6014 151.041 12.7357 150.679 12.9864C150.317 13.2371 150.041 13.5922 149.886 14.0045L143.651 30.5981H147.396L148.376 27.7576C148.523 27.3319 148.799 26.9626 149.166 26.7012C149.532 26.4397 149.971 26.2993 150.422 26.2994H155.817L157.3 30.5971H161.045L154.284 12.6016ZM149.987 23.1802L152.35 16.572L154.712 23.1802H149.987Z" fill="#003057"/>
<path d="M211.569 18.2812H215.314L218.379 26.1233H218.555L221.647 18.2812H225.366L220.065 30.5969H216.823L211.569 18.2812Z" fill="#003057"/>
<path d="M197.967 18.2429C197.317 18.0602 196.644 17.9714 195.968 17.979C195.081 17.9691 194.201 18.1491 193.389 18.5069C193.059 18.6584 192.741 18.837 192.441 19.0408V18.2815H189.147V30.5962H192.441V24.4823C192.441 24.3746 192.441 24.2658 192.454 24.162C192.48 23.812 192.548 23.4664 192.657 23.1328C192.721 22.9326 192.802 22.7384 192.899 22.5525C192.934 22.4842 192.973 22.4182 193.016 22.3548C193.134 22.1736 193.27 22.0052 193.422 21.8525C193.55 21.7203 193.691 21.6014 193.843 21.4976C194.029 21.3684 194.228 21.2581 194.436 21.1684C194.455 21.1572 194.475 21.1486 194.496 21.1427C194.798 21.0438 195.114 20.9941 195.431 20.9954C195.732 20.9909 196.033 21.0201 196.327 21.0824C196.558 21.1374 196.781 21.2187 196.993 21.3246L197.024 21.2168C197.027 21.2164 197.031 21.2171 197.034 21.2187C197.037 21.2202 197.039 21.2227 197.041 21.2257L197.175 20.8668L198.14 18.3052C198.084 18.2835 198.028 18.2617 197.967 18.2449" fill="#003057"/>
<path d="M173.539 21.7006C173.249 20.9488 172.819 20.2592 172.27 19.6689C171.726 19.0878 171.07 18.623 170.342 18.3026C169.642 18.0029 168.889 17.8521 168.128 17.8596H162.14V35.6406H165.366V30.7141H168.128C168.889 30.7217 169.642 30.5709 170.342 30.2712C171.07 29.9506 171.727 29.4855 172.27 28.9039C172.819 28.3138 173.249 27.6241 173.539 26.8722C174.163 25.2048 174.163 23.368 173.539 21.7006ZM170.51 25.585C170.341 25.9593 170.098 26.2955 169.796 26.5737C169.497 26.8443 169.15 27.0568 168.774 27.2005C168.385 27.35 167.971 27.4258 167.555 27.4239H165.366V21.1509H167.555C167.971 21.1493 168.385 21.2254 168.774 21.3753C169.15 21.5189 169.497 21.7315 169.796 22.0021C170.269 22.4531 170.592 23.0393 170.72 23.6806C170.848 24.3219 170.774 24.987 170.51 25.585Z" fill="#003057"/>
<path d="M186.977 21.7006C186.688 20.9488 186.257 20.2592 185.709 19.6689C185.165 19.0878 184.509 18.623 183.78 18.3026C183.081 18.0029 182.327 17.8521 181.566 17.8596H175.578V35.6406H178.804V30.7141H181.566C182.327 30.7217 183.081 30.5709 183.78 30.2712C184.509 29.9506 185.165 29.4855 185.709 28.9039C186.257 28.3138 186.688 27.6241 186.977 26.8722C187.601 25.2048 187.601 23.368 186.977 21.7006ZM183.948 25.585C183.779 25.9593 183.536 26.2955 183.234 26.5737C182.935 26.8443 182.589 27.0569 182.212 27.2005C181.823 27.35 181.41 27.4258 180.993 27.4239H178.804V21.1509H180.993C181.41 21.1493 181.823 21.2254 182.212 21.3753C182.589 21.5189 182.935 21.7315 183.234 22.0021C183.708 22.4531 184.03 23.0393 184.158 23.6806C184.286 24.3219 184.213 24.987 183.948 25.585Z" fill="#003057"/>
<path d="M240.77 26.7581C241.059 27.5099 241.49 28.1995 242.038 28.7898C242.582 29.3709 243.238 29.8357 243.967 30.1561C244.666 30.4561 245.42 30.6073 246.181 30.6H252.169V12.6006H248.943V17.7416H246.182C245.421 17.734 244.667 17.8848 243.968 18.1845C243.239 18.5052 242.583 18.9703 242.039 19.5518C241.491 20.142 241.06 20.8316 240.771 21.5835C240.147 23.2509 240.147 25.0877 240.771 26.7552M243.8 22.8707C243.969 22.4964 244.212 22.1602 244.514 21.8821C244.812 21.6115 245.159 21.399 245.535 21.2553C245.924 21.1056 246.338 21.0298 246.755 21.0318H248.944V27.3019H246.755C246.338 27.3036 245.924 27.2275 245.535 27.0775C245.159 26.9338 244.812 26.7212 244.514 26.4507C244.04 25.9997 243.718 25.4135 243.59 24.7722C243.462 24.1309 243.535 23.4658 243.8 22.8678" fill="#003057"/>
<path d="M210.899 21.8C210.593 21.0252 210.132 20.3213 209.544 19.7319C208.955 19.1425 208.252 18.6801 207.478 18.3733C205.788 17.7193 203.915 17.7193 202.224 18.3733C201.45 18.6809 200.747 19.144 200.16 19.7341C199.572 20.3242 199.111 21.0287 198.807 21.8039C198.153 23.5027 198.153 25.3836 198.807 27.0824C199.111 27.8575 199.572 28.562 200.16 29.1521C200.748 29.7421 201.45 30.2053 202.224 30.513C203.915 31.1665 205.788 31.1665 207.478 30.513C208.252 30.2053 208.955 29.7421 209.543 29.1521C210.131 28.562 210.591 27.8575 210.896 27.0824C211.55 25.3836 211.55 23.5027 210.896 21.8039M207.87 25.8574C207.725 26.2269 207.508 26.5632 207.23 26.8461C206.947 27.1254 206.611 27.3449 206.241 27.4917C205.347 27.8182 204.367 27.8182 203.473 27.4917C203.103 27.3455 202.767 27.1262 202.484 26.8471C202.206 26.5644 201.988 26.228 201.844 25.8584C201.51 24.9482 201.51 23.949 201.844 23.0388C201.985 22.6661 202.203 22.3274 202.485 22.0451C202.766 21.7628 203.104 21.5431 203.476 21.4006C204.37 21.0744 205.35 21.0744 206.244 21.4006C206.614 21.5468 206.95 21.7661 207.233 22.0452C207.511 22.3279 207.729 22.6643 207.874 23.0338C208.207 23.9442 208.207 24.9431 207.874 25.8535" fill="#003057"/>
<path d="M258.039 14.625C258.049 14.9953 257.948 15.3601 257.75 15.6728C257.551 15.9854 257.264 16.2317 256.925 16.3802C256.585 16.5286 256.209 16.5724 255.845 16.5059C255.481 16.4394 255.144 16.2657 254.879 16.007C254.614 15.7483 254.433 15.4164 254.357 15.0538C254.282 14.6911 254.317 14.3143 254.457 13.9714C254.597 13.6286 254.836 13.3354 255.144 13.1293C255.452 12.9233 255.814 12.8138 256.184 12.8148C256.425 12.8101 256.665 12.8534 256.889 12.9421C257.114 13.0308 257.318 13.1633 257.49 13.3317C257.663 13.5002 257.8 13.7013 257.895 13.9233C257.989 14.1453 258.038 14.3839 258.039 14.625ZM254.782 14.625C254.776 14.8137 254.809 15.0017 254.877 15.1776C254.946 15.3535 255.049 15.5138 255.181 15.6488C255.313 15.7839 255.471 15.8909 255.645 15.9635C255.819 16.0362 256.006 16.0729 256.195 16.0714C256.381 16.0716 256.566 16.0341 256.737 15.9614C256.908 15.8886 257.063 15.7821 257.192 15.648C257.322 15.514 257.423 15.3553 257.489 15.1814C257.555 15.0075 257.586 14.822 257.579 14.6359C257.589 14.4472 257.56 14.2585 257.494 14.0812C257.429 13.904 257.328 13.7419 257.198 13.6047C257.068 13.4675 256.911 13.3581 256.738 13.2832C256.564 13.2082 256.377 13.1691 256.188 13.1684C255.999 13.1676 255.812 13.2052 255.638 13.2789C255.464 13.3525 255.307 13.4607 255.176 13.5968C255.045 13.733 254.943 13.8943 254.876 14.071C254.809 14.2477 254.778 14.4362 254.786 14.625M255.902 15.5741H255.482V13.7639C255.711 13.7236 255.942 13.705 256.174 13.7085C256.393 13.6907 256.611 13.7367 256.804 13.841C256.861 13.8897 256.906 13.9504 256.937 14.0188C256.967 14.0873 256.982 14.1616 256.98 14.2365C256.972 14.3378 256.931 14.4336 256.864 14.5094C256.796 14.5851 256.705 14.6365 256.605 14.6557V14.6774C256.696 14.714 256.774 14.7745 256.832 14.8523C256.891 14.9302 256.927 15.0225 256.937 15.1194C256.954 15.2768 256.999 15.43 257.069 15.5722H256.616C256.546 15.4333 256.498 15.2846 256.472 15.1312C256.439 14.9335 256.329 14.8435 256.097 14.8435H255.9L255.902 15.5741ZM255.912 14.5469H256.11C256.341 14.5469 256.529 14.4698 256.529 14.282C256.529 14.1159 256.409 14.0061 256.144 14.0061C256.066 14.0043 255.988 14.0116 255.911 14.0279L255.912 14.5469Z" fill="#003057"/>
<path d="M238.462 27.6735C237.905 28.6666 237.112 29.5071 236.153 30.1205C235.088 30.7697 233.855 31.094 232.608 31.0537C231.714 31.0621 230.826 30.8941 229.997 30.5594C229.217 30.2461 228.508 29.778 227.913 29.1833C227.318 28.5886 226.85 27.8796 226.537 27.0991C226.2 26.2613 226.032 25.3652 226.042 24.4624C226.038 23.5941 226.201 22.7332 226.522 21.9265C227.136 20.3548 228.347 19.0898 229.89 18.4069C230.704 18.0466 231.586 17.8659 232.477 17.8769C233.384 17.8616 234.285 18.0297 235.126 18.3713C235.867 18.676 236.53 19.1413 237.069 19.7336C237.6 20.3312 238.004 21.031 238.255 21.79C238.53 22.6189 238.667 23.4873 238.66 24.3605V24.6631C238.643 24.7548 238.635 24.8477 238.634 24.9409C238.616 25.0324 238.608 25.1255 238.608 25.2187H229.298C229.35 25.675 229.491 26.1166 229.714 26.5178C229.914 26.8679 230.18 27.1764 230.496 27.4264C230.8 27.6666 231.147 27.8465 231.519 27.9563C231.887 28.0654 232.269 28.1207 232.654 28.1204C233.318 28.1464 233.974 27.9658 234.532 27.6033C235.02 27.2683 235.422 26.8233 235.706 26.3042L238.462 27.6735ZM235.459 22.8795C235.432 22.6248 235.36 22.3769 235.245 22.1479C235.107 21.8637 234.919 21.607 234.689 21.3906C234.425 21.1422 234.117 20.9454 233.781 20.8103C233.367 20.6498 232.925 20.5728 232.482 20.5839C231.809 20.5727 231.153 20.7855 230.615 21.1889C230.062 21.6136 229.664 22.2073 229.48 22.8795H235.459Z" fill="#003057"/>
<path d="M132.551 27.6735C131.994 28.6666 131.201 29.5071 130.242 30.1205C129.177 30.7695 127.945 31.0938 126.698 31.0537C125.804 31.0621 124.916 30.8941 124.087 30.5594C123.306 30.2461 122.597 29.778 122.003 29.1833C121.408 28.5886 120.94 27.8796 120.627 27.0991C120.29 26.2613 120.122 25.3652 120.132 24.4624C120.128 23.5941 120.291 22.7332 120.612 21.9265C121.226 20.3548 122.437 19.0898 123.98 18.4069C124.794 18.0466 125.676 17.8659 126.566 17.8769C127.474 17.8616 128.375 18.0297 129.216 18.3713C129.956 18.676 130.62 19.1413 131.159 19.7336C131.69 20.3312 132.094 21.0309 132.345 21.79C132.62 22.6189 132.756 23.4874 132.748 24.3605V24.6631C132.732 24.7548 132.724 24.8477 132.723 24.9409C132.705 25.0324 132.696 25.1255 132.697 25.2187H123.387C123.438 25.675 123.58 26.1166 123.803 26.5178C124.003 26.8679 124.269 27.1764 124.585 27.4264C124.889 27.6666 125.236 27.8465 125.607 27.9563C125.976 28.0654 126.358 28.1207 126.742 28.1204C127.407 28.1465 128.063 27.9658 128.621 27.6033C129.109 27.2684 129.511 26.8233 129.794 26.3042L132.551 27.6735ZM129.548 22.8795C129.521 22.6248 129.449 22.3769 129.334 22.1479C129.196 21.8637 129.008 21.607 128.778 21.3906C128.514 21.1423 128.206 20.9455 127.869 20.8103C127.456 20.6498 127.014 20.5728 126.57 20.5839C125.898 20.5727 125.242 20.7855 124.704 21.1889C124.151 21.6136 123.753 22.2073 123.569 22.8795H129.548Z" fill="#EB7100"/>
</g>
<defs>
<clipPath id="clip0_2003_12502">
<rect width="258.039" height="40" fill="white"/>
</clipPath>
</defs>
</svg>
