<svg width="196" height="98" viewBox="0 0 196 98" fill="none" xmlns="http://www.w3.org/2000/svg">
<g clip-path="url(#clip0_2000_6462)">
<path d="M191.531 21.771H59.7891C58.4249 21.771 57.3191 22.8769 57.3191 24.241V65.41C57.3191 66.7741 58.4249 67.88 59.7891 67.88H191.531C192.895 67.88 194.001 66.7741 194.001 65.41V24.241C194.001 22.8769 192.895 21.771 191.531 21.771Z" fill="white"/>
<path d="M191.531 20.771H59.7891C57.8727 20.771 56.3191 22.3246 56.3191 24.241V65.41C56.3191 67.3264 57.8727 68.88 59.7891 68.88H191.531C193.448 68.88 195.001 67.3264 195.001 65.41V24.241C195.001 22.3246 193.448 20.771 191.531 20.771Z" stroke="#DEE0E3" stroke-width="2" stroke-miterlimit="10"/>
<path d="M61.436 47.2959H189.884" stroke="#D7D7D7" stroke-miterlimit="10"/>
<path d="M107.607 27.4819L109.298 32.6879H114.772L110.344 35.9049L112.035 41.1109L107.607 37.8939L103.179 41.1109L104.87 35.9049L100.442 32.6879H105.916L107.607 27.4819Z" fill="#DDDFE3"/>
<path d="M123.05 27.4819L124.741 32.6879H130.215L125.787 35.9049L127.478 41.1109L123.05 37.8939L118.622 41.1109L120.313 35.9049L115.885 32.6879H121.359L123.05 27.4819Z" fill="#DDDFE3"/>
<path d="M138.493 27.4819L140.184 32.6879H145.658L141.23 35.9049L142.921 41.1109L138.493 37.8939L134.065 41.1109L135.756 35.9049L131.328 32.6879H136.802L138.493 27.4819Z" fill="#DDDFE3"/>
<path d="M153.936 27.4819L155.627 32.6879H161.101L156.673 35.9049L158.364 41.1109L153.936 37.8939L149.508 41.1109L151.199 35.9049L146.771 32.6879H152.245L153.936 27.4819Z" fill="#DDDFE3"/>
<path d="M169.38 27.4819L171.071 32.6879H176.545L172.117 35.9049L173.808 41.1109L169.38 37.8939L164.952 41.1109L166.643 35.9049L162.215 32.6879H167.689L169.38 27.4819Z" fill="#DDDFE3"/>
<path d="M94.1802 27.4819H73.1992V41.1109H94.1802V27.4819Z" fill="#DDDFE3"/>
<path d="M37.09 27.2009L45.637 53.5359H73.329L50.929 69.8129L59.476 96.1469L37.076 79.8699L14.676 96.1469L23.223 69.8129L0.822998 53.5359H28.516L37.09 27.2009Z" fill="#EB7100"/>
<path d="M55.881 53.5359H73.329L50.929 69.8129L59.476 96.1469L37.076 79.8699L14.676 96.1469L19.703 80.6569L55.881 53.5359Z" fill="#D86303"/>
<path d="M182.147 54.783H82.8371C81.2847 54.783 80.0261 56.0415 80.0261 57.594V93.195C80.0261 94.7474 81.2847 96.006 82.8371 96.006H182.147C183.7 96.006 184.958 94.7474 184.958 93.195V57.594C184.958 56.0415 183.7 54.783 182.147 54.783Z" fill="white"/>
<path d="M182.147 53.783H82.8371C80.7324 53.783 79.0261 55.4892 79.0261 57.594V93.195C79.0261 95.2997 80.7324 97.006 82.8371 97.006H182.147C184.252 97.006 185.958 95.2997 185.958 93.195V57.594C185.958 55.4892 184.252 53.783 182.147 53.783Z" stroke="#DEE0E3" stroke-width="2" stroke-miterlimit="10"/>
<path d="M118.517 61.158L119.982 65.666H124.722L120.888 68.452L122.353 72.96L118.519 70.174L114.684 72.96L116.149 68.452L112.314 65.666H117.054L118.517 61.158Z" fill="#DDDFE3"/>
<path d="M131.89 61.158L133.355 65.666H138.095L134.261 68.452L135.726 72.96L131.892 70.174L128.058 72.96L129.523 68.452L125.689 65.666H130.429L131.89 61.158Z" fill="#DDDFE3"/>
<path d="M145.262 61.158L146.727 65.666H151.467L147.633 68.452L149.098 72.96L145.264 70.174L141.43 72.96L142.895 68.452L139.061 65.666H143.801L145.262 61.158Z" fill="#DDDFE3"/>
<path d="M158.636 61.158L160.101 65.666H164.841L161.007 68.452L162.472 72.96L158.637 70.174L154.803 72.96L156.268 68.452L152.434 65.666H157.174L158.636 61.158Z" fill="#DDDFE3"/>
<path d="M172.008 61.158L173.473 65.666H178.213L174.378 68.452L175.843 72.96L172.008 70.174L168.174 72.96L169.639 68.452L165.804 65.666H170.544L172.008 61.158Z" fill="#DDDFE3"/>
<path d="M97.3888 97.006H96.7031H82.8371C80.7357 97.006 79.0261 95.2964 79.0261 93.195V57.593C79.0261 55.4921 80.7357 53.783 82.8371 53.783H112.63H114.089L113.563 55.1434L97.6359 96.3664L97.3888 97.006Z" fill="#F8F9FA"/>
<path d="M96.7031 96.006L112.63 54.783H82.8371C81.2841 54.783 80.0261 56.041 80.0261 57.593V93.195C80.0261 94.747 81.2841 96.006 82.8371 96.006H96.7031ZM98.0745 98.006H82.8371C80.1843 98.006 78.0261 95.8478 78.0261 93.195V57.593C78.0261 54.9407 80.1843 52.783 82.8371 52.783H115.547L98.0745 98.006Z" fill="#DEE0E3"/>
<path d="M100.236 75.3939L100.223 75.3849L94.207 71.4849C94.563 71.1256 94.918 70.7793 95.272 70.4459L97.236 71.7149L96.371 69.4509C96.775 69.0983 97.1784 68.7613 97.581 68.4399L100.236 75.3939Z" fill="#C4C5C6"/>
<path d="M99.2511 63.8529C99.1141 63.9069 98.9741 63.9629 98.8341 64.0219C98.0157 64.3704 97.2221 64.7747 96.4591 65.2319H94.7521L93.7901 62.7199L92.8301 65.2319H85.8401L83.7141 63.8529H91.7581L93.7921 58.5439L95.8231 63.8509L99.2511 63.8529Z" fill="#C4C5C6"/>
<path d="M103.803 63.7618C102.924 64.1248 97.6821 65.6548 90.6761 73.9778C90.0111 74.7526 89.0769 75.2462 88.0621 75.3588H86.8911C87.9561 72.5848 89.1171 69.5898 89.3691 68.9478C89.5033 68.6558 89.5298 68.3258 89.4439 68.0161C89.3581 67.7064 89.1655 67.4371 88.9001 67.2558L88.8281 67.2078H90.3001C90.5711 67.2037 90.834 67.3006 91.0374 67.4798C91.2407 67.6589 91.3701 67.9075 91.4001 68.1768C91.4001 68.2018 91.4001 68.2278 91.4001 68.2528C91.4041 68.4459 91.3701 68.6378 91.3001 68.8178C90.9671 69.7098 90.5231 70.8688 90.2341 71.6178C90.3251 71.5128 90.4461 71.3748 90.5621 71.2548C92.9739 68.5636 95.9117 66.3953 99.1941 64.8838C100.564 64.26 102.029 63.8725 103.528 63.7378C103.62 63.7373 103.712 63.7453 103.803 63.7618Z" fill="#C4C5C6"/>
<path d="M176.667 80.657H113.018V88.514H176.667V80.657Z" fill="#DDDFE3"/>
<path d="M45.0221 14.544C44.8007 16.1314 44.8856 17.7465 45.2721 19.302C45.6282 20.484 46.1711 21.6014 46.8801 22.612C48.3105 24.7049 50.1669 26.4719 52.3278 27.7973C54.4887 29.1227 56.9052 29.9766 59.4191 30.303C59.8637 30.4238 60.3324 30.4235 60.7768 30.302C61.2211 30.1804 61.6249 29.9422 61.9461 29.612C62.2094 29.1586 62.2841 28.6199 62.1541 28.112C61.8503 27.1334 61.4528 26.1863 60.9671 25.284C60.7293 24.8285 60.6174 24.3178 60.6431 23.8046C60.6688 23.2915 60.8311 22.7945 61.1131 22.365C61.4285 22.0606 61.8115 21.8354 62.2308 21.7078C62.6501 21.5802 63.0937 21.5539 63.5251 21.631C64.3961 21.719 65.2421 22.002 66.1161 22.031C67.078 22.006 68.0205 21.7546 68.867 21.2971C69.7135 20.8396 70.4402 20.189 70.9881 19.398C71.9921 17.9853 72.615 16.3376 72.7968 14.6141C72.9786 12.8905 72.7132 11.1491 72.0261 9.558C71.312 7.98117 70.2868 6.56482 69.012 5.39391C67.7371 4.22301 66.2388 3.32168 64.6071 2.744C61.3202 1.60626 57.7724 1.45402 54.4001 2.306C48.9511 3.58 45.6061 9.252 45.0221 14.544Z" fill="white"/>
<path d="M59.3141 31.6099C55.1233 31.6086 51.1045 29.9428 48.1415 26.9789C45.1786 24.0151 43.5142 19.9958 43.5142 15.8049C43.5155 11.6149 45.1805 7.59685 48.1433 4.63406C51.1061 1.67127 55.1241 0.00620814 59.3141 0.00488281C68.0231 0.00488281 75.1141 6.38988 75.1141 14.2289C75.1143 15.4742 74.8691 16.7074 74.3925 17.858C73.916 19.0086 73.2175 20.0541 72.3369 20.9347C71.4563 21.8153 70.4109 22.5138 69.2603 22.9903C68.1097 23.4668 66.8765 23.712 65.6311 23.7119H62.8311C62.7273 23.7119 62.6245 23.7323 62.5286 23.7721C62.4327 23.8119 62.3456 23.8702 62.2722 23.9436C62.1988 24.0171 62.1406 24.1043 62.101 24.2003C62.0613 24.2962 62.041 24.3991 62.0411 24.5029C62.0475 24.695 62.1199 24.879 62.2462 25.0239C62.8919 25.7524 63.2514 26.6904 63.2581 27.6639C63.2568 28.7097 62.8409 29.7123 62.1016 30.452C61.3623 31.1916 60.3599 31.608 59.3141 31.6099ZM59.3141 3.16088C57.6537 3.16088 56.0095 3.48793 54.4755 4.12335C52.9415 4.75877 51.5476 5.69012 50.3735 6.86422C49.1994 8.03833 48.268 9.43219 47.6326 10.9662C46.9972 12.5003 46.6701 14.1444 46.6701 15.8049C46.6715 19.1574 48.0042 22.3722 50.3752 24.7423C52.7463 27.1124 55.9616 28.4439 59.3141 28.4439C59.5238 28.4439 59.7248 28.3607 59.8731 28.2126C60.0214 28.0644 60.1049 27.8635 60.1051 27.6539C60.1002 27.4488 60.0214 27.2524 59.8831 27.1009C59.1908 26.3202 58.8363 25.2969 58.8972 24.2552C58.9581 23.2136 59.4295 22.2385 60.2081 21.5439C60.9323 20.8983 61.869 20.5423 62.8391 20.5439H65.6392C66.4694 20.544 67.2915 20.3806 68.0586 20.0629C68.8257 19.7453 69.5227 19.2796 70.1098 18.6925C70.6968 18.1054 71.1625 17.4084 71.4802 16.6414C71.7979 15.8743 71.9613 15.0521 71.9612 14.2219C71.9582 8.12388 66.2841 3.16088 59.3141 3.16088Z" fill="#003057"/>
<path d="M50.6222 17.3858C51.9317 17.3858 52.9932 16.3243 52.9932 15.0148C52.9932 13.7053 51.9317 12.6438 50.6222 12.6438C49.3128 12.6438 48.2512 13.7053 48.2512 15.0148C48.2512 16.3243 49.3128 17.3858 50.6222 17.3858Z" fill="#3A99D2"/>
<path d="M55.3632 11.0638C56.6727 11.0638 57.7342 10.0022 57.7342 8.69278C57.7342 7.38331 56.6727 6.32178 55.3632 6.32178C54.0537 6.32178 52.9922 7.38331 52.9922 8.69278C52.9922 10.0022 54.0537 11.0638 55.3632 11.0638Z" fill="#52AB66"/>
<path d="M63.266 11.0638C64.5755 11.0638 65.637 10.0022 65.637 8.69278C65.637 7.38331 64.5755 6.32178 63.266 6.32178C61.9566 6.32178 60.895 7.38331 60.895 8.69278C60.895 10.0022 61.9566 11.0638 63.266 11.0638Z" fill="#E28125"/>
<path d="M68.0072 17.3858C69.3167 17.3858 70.3782 16.3243 70.3782 15.0148C70.3782 13.7053 69.3167 12.6438 68.0072 12.6438C66.6978 12.6438 65.6362 13.7053 65.6362 15.0148C65.6362 16.3243 66.6978 17.3858 68.0072 17.3858Z" fill="#EF5856"/>
</g>
<defs>
<clipPath id="clip0_2000_6462">
<rect width="195.188" height="98.006" fill="white" transform="translate(0.812012)"/>
</clipPath>
</defs>
</svg>
