<svg width="197" height="40" viewBox="0 0 197 40" fill="none" xmlns="http://www.w3.org/2000/svg">
<g clip-path="url(#clip0_4552_1216)">
<path fill-rule="evenodd" clip-rule="evenodd" d="M1.01154 3.764C1.92192 1.55991 4.20659 0.000504269 6.60015 0.00703811C24.6052 0.000504269 42.6103 0.00921606 60.6154 0.000504269C62.177 -0.0343429 63.7408 0.547169 64.8929 1.60347C66.2127 2.78392 66.9641 4.54806 66.9271 6.31655C66.9206 13.2185 66.9402 20.1182 66.9184 27.0201C66.9053 30.1389 64.1807 32.9224 61.0641 33.0073C54.4976 33.0356 47.9289 33.0095 41.3624 33.0204C42.2444 35.194 43.1374 37.3654 44.0195 39.5411C40.1079 37.3871 36.2355 35.1569 32.3021 33.0487C23.6644 32.9725 15.0201 33.0552 6.38018 33.0051C3.26789 32.918 0.55417 30.1368 0.536746 27.0245C0.510611 20.2707 0.536746 13.5125 0.523679 6.75432C0.499721 5.7394 0.595551 4.70269 1.01154 3.764Z" fill="#9C5C8F"/>
<path fill-rule="evenodd" clip-rule="evenodd" d="M27.4214 4.26682C28.4189 3.20616 30.3116 3.55028 31.0477 4.75033C31.4463 5.37975 31.4811 6.22044 31.161 6.89125C29.7736 9.62022 29.1943 12.6606 28.6607 15.6488C28.0291 19.5451 27.5042 23.4916 27.7089 27.4467C27.7656 28.4551 27.2777 29.6791 26.1953 29.9143C25.1716 30.143 24.2395 29.4722 23.597 28.7491C20.6567 25.5867 18.9928 21.49 17.7927 17.402C16.5796 19.7956 15.3622 22.1892 14.1861 24.6023C13.3628 26.2336 12.4938 27.8976 11.1783 29.1934C10.6229 29.7444 9.68425 30.2432 8.9677 29.6769C7.88962 28.7339 7.62391 27.2311 7.16654 25.9396C5.43071 19.9524 4.44628 13.7823 3.43789 7.64046C3.20703 6.61683 3.63609 5.39064 4.65754 4.98119C5.48298 4.67192 6.53929 4.62836 7.24277 5.23601C7.7328 5.67378 7.86784 6.35112 7.95931 6.96966C8.66714 11.7241 9.51001 16.4633 10.6578 21.1328C12.6245 17.4042 14.5803 13.669 16.5404 9.93602C16.8323 9.38936 17.1807 8.84051 17.7165 8.50075C18.4331 8.04121 19.4959 8.07388 20.0948 8.71637C20.5979 9.24343 20.7656 9.9774 20.905 10.67C21.4909 13.7561 22.2837 16.8118 23.4358 19.7368C23.9324 15.3286 24.54 10.866 26.1495 6.70395C26.5132 5.86544 26.8334 4.97901 27.4214 4.26682ZM38.4767 6.62772C40.5937 6.36854 42.8783 7.07202 44.3201 8.68152C45.4962 10.0122 46.1561 11.7394 46.3783 13.4861C46.7377 16.4742 46.1997 19.58 44.7623 22.2305C43.9499 23.742 42.8871 25.1904 41.3886 26.079C39.1933 27.4119 36.2487 27.2485 34.1273 25.8416C32.4329 24.6807 31.4811 22.7031 31.0935 20.7321C30.3138 16.2717 31.6467 11.2994 35.0247 8.18495C35.9938 7.34862 37.2026 6.78235 38.4767 6.62772ZM38.9188 11.2167C37.9017 11.5542 37.2592 12.4864 36.7126 13.3532C35.3426 15.5595 34.9463 18.4692 36.0483 20.8693C36.338 21.5009 36.804 22.1652 37.538 22.298C38.3177 22.4265 39.043 21.9801 39.6114 21.4944C40.8637 20.4207 41.4866 18.8068 41.7894 17.2234C42.1291 15.4201 41.9549 13.4229 40.8964 11.8787C40.4717 11.2493 39.6376 10.964 38.9188 11.2167ZM55.4625 6.63207C57.5316 6.37508 59.777 7.01322 61.2254 8.55738C62.5212 9.95562 63.2225 11.8265 63.4207 13.706C63.7256 16.594 63.1942 19.58 61.8243 22.1478C61.001 23.7006 59.9142 25.1947 58.3723 26.0986C56.264 27.3618 53.4806 27.2463 51.3919 26.0006C49.9806 25.1512 49.0419 23.7006 48.5018 22.1761C47.0208 17.5131 48.2709 12.0268 51.6838 8.50729C52.7074 7.50979 54.036 6.81067 55.4625 6.63207ZM55.9112 11.2232C54.8004 11.6196 54.134 12.6802 53.5568 13.6429C52.3067 15.847 51.9996 18.6848 53.1299 21C53.4348 21.6403 53.975 22.285 54.7394 22.3198C55.5714 22.3503 56.288 21.8233 56.8651 21.2788C58.1218 20.0395 58.6968 18.2688 58.8971 16.5504C59.104 14.9409 58.8362 13.2117 57.8996 11.8613C57.4706 11.2319 56.6277 10.964 55.9112 11.2232Z" fill="white"/>
<path fill-rule="evenodd" clip-rule="evenodd" d="M78.111 7.24372C79.9165 6.84516 81.8157 6.89961 83.6125 7.31777C83.619 8.78789 83.6125 10.258 83.6169 11.7281C82.1424 11.3731 80.4937 11.0399 79.0628 11.7281C77.3531 12.5644 76.4187 14.4919 76.4013 16.3432C76.3055 18.1879 76.9197 20.2417 78.5531 21.2784C80.0537 22.2716 81.9703 22.0603 83.6169 21.5877C83.6125 23.0578 83.6169 24.5279 83.6125 25.998C81.4346 26.6296 79.0541 26.5512 76.9284 25.7606C74.3758 24.8023 72.3438 22.5983 71.5663 19.9869C70.9782 18.005 70.902 15.8575 71.379 13.8429C72.1478 10.6108 74.8768 7.96245 78.111 7.24155V7.24372ZM91.3791 7.02593C93.6006 6.77764 96.0181 7.11958 97.8127 8.54396C99.5442 9.88775 100.409 12.0548 100.709 14.1718C101.014 16.4891 100.947 18.9001 100.23 21.139C99.6204 23.0404 98.3441 24.798 96.5059 25.6626C94.6373 26.5425 92.4593 26.6013 90.4709 26.1527C88.6283 25.7389 87.0057 24.517 86.091 22.8683C84.8256 20.6446 84.5948 18.005 84.6928 15.496C84.7973 13.3311 85.344 11.0747 86.7988 9.40642C87.9401 8.04956 89.6302 7.22412 91.3791 7.02593ZM92.0629 11.2424C91.109 11.4842 90.5689 12.4251 90.3293 13.3115C89.8567 15.0647 89.9373 16.9095 90.057 18.7041C90.1725 19.6733 90.277 20.7448 90.9674 21.5006C91.8843 22.5438 93.7269 22.4022 94.5698 21.335C95.1273 20.6512 95.2711 19.7495 95.3996 18.9045C95.5781 17.393 95.6239 15.8553 95.393 14.3482C95.2318 13.4443 94.9814 12.4904 94.3171 11.8152C93.7465 11.2228 92.8448 11.0421 92.0629 11.2424ZM179.19 7.31995C181.076 6.82556 183.075 6.89743 184.972 7.30253C185.016 8.777 184.981 10.2536 184.992 11.7281C183.548 11.3818 181.953 11.0573 180.54 11.6802C178.915 12.4207 177.931 14.1631 177.804 15.9032C177.604 17.8547 178.142 20.098 179.863 21.2392C181.37 22.2759 183.323 22.0734 184.992 21.5899C184.972 23.0709 185.035 24.554 184.957 26.0329C182.635 26.6362 180.106 26.5556 177.894 25.5951C175.463 24.5366 173.579 22.3413 172.88 19.7887C172.344 17.8285 172.283 15.7203 172.778 13.7449C173.551 10.6566 176.119 8.12144 179.19 7.31995ZM103.641 7.46587C105.74 7.46152 107.842 7.46152 109.944 7.46587C110.704 10.8722 111.427 14.2894 112.059 17.7218C112.66 14.2741 113.468 10.8678 114.28 7.46587C116.434 7.46152 118.588 7.46587 120.744 7.46587C121.581 13.6316 122.413 19.7974 123.242 25.9632C121.594 25.9632 119.947 25.9654 118.298 25.9632C117.841 21.7401 117.436 17.5127 116.953 13.2919C115.953 17.5215 114.899 21.738 113.879 25.9632C112.756 25.9675 111.63 25.9654 110.506 25.9632C109.428 21.7336 108.367 17.4975 107.28 13.2701C106.856 17.5019 106.435 21.7336 106.006 25.9654C104.431 25.9632 102.855 25.9654 101.28 25.9632C102.064 19.7974 102.855 13.6338 103.641 7.46805V7.46587ZM126.248 7.46587C128.35 7.46587 130.451 7.46152 132.555 7.46587C133.313 10.8678 134.03 14.2785 134.666 17.7066C135.276 14.2654 136.075 10.8613 136.889 7.4637H143.327C144.162 13.6295 144.994 19.7952 145.823 25.961C144.177 25.9654 142.53 25.961 140.884 25.9654C140.426 21.7401 140 17.5149 139.549 13.2897C138.521 17.5127 137.512 21.7401 136.484 25.9632C135.361 25.961 134.239 25.9632 133.117 25.9632C132.039 21.7293 130.968 17.4931 129.892 13.257C129.46 17.491 129.044 21.7271 128.615 25.961C127.039 25.961 125.464 25.9632 123.887 25.961C124.673 19.7952 125.462 13.6295 126.248 7.4637V7.46587ZM147.23 7.52686C150.604 7.45063 153.982 7.51597 157.358 7.49419C157.364 8.80749 157.353 10.1186 157.364 11.4319C155.661 11.4515 153.958 11.4319 152.255 11.4428C152.255 12.571 152.255 13.6992 152.255 14.8273C153.729 14.8317 155.204 14.8273 156.678 14.8273C156.678 16.1058 156.68 17.3821 156.678 18.6583C155.204 18.6583 153.729 18.6583 152.255 18.6583C152.255 19.7865 152.255 20.9169 152.255 22.0451C153.965 22.0494 155.676 22.0451 157.386 22.0451C157.386 23.3584 157.388 24.6717 157.386 25.985C154.01 25.985 150.634 25.985 147.261 25.985C147.239 19.8301 147.298 13.673 147.23 7.52032V7.52686ZM158.817 7.46587C160.93 7.47459 163.042 7.44845 165.155 7.47894C167.145 7.5421 169.256 8.03867 170.741 9.44781C172.083 10.6958 172.547 12.7322 172.026 14.468C171.615 15.8793 170.556 17.0249 169.234 17.6434C170.556 20.4203 171.891 23.1885 173.213 25.9632C171.456 25.9632 169.698 25.9632 167.943 25.9654C166.564 23.134 165.229 20.2787 163.833 17.4561C163.798 20.2918 163.828 23.1275 163.818 25.9632C162.149 25.9632 160.483 25.9654 158.817 25.9632C158.817 19.7974 158.815 13.6316 158.817 7.46587ZM163.794 11.0225C163.789 12.4926 163.789 13.9649 163.794 15.4372C164.697 15.374 165.68 15.3392 166.449 14.7925C167.333 14.1544 167.237 12.7888 166.679 11.9655C165.989 11.1205 164.789 11.103 163.794 11.0225ZM186.392 7.47023C189.761 7.46152 193.131 7.47023 196.5 7.46587C196.502 8.78135 196.5 10.0968 196.5 11.4123C194.79 11.4145 193.08 11.4123 191.371 11.4145C191.369 12.5405 191.369 13.6665 191.369 14.7947C192.843 14.799 194.318 14.7947 195.792 14.7947C195.792 16.0731 195.792 17.3538 195.792 18.6322C194.318 18.6322 192.845 18.6322 191.373 18.6322C191.366 19.7604 191.369 20.8886 191.373 22.0189C193.089 22.0233 194.805 22.0189 196.524 22.0189C196.524 23.3322 196.524 24.6455 196.522 25.961C193.148 25.961 189.772 25.961 186.399 25.9588C186.392 19.7952 186.399 13.6295 186.394 7.46587L186.392 7.47023Z" fill="black"/>
</g>
<defs>
<clipPath id="clip0_4552_1216">
<rect width="196" height="39.5428" fill="white" transform="translate(0.519531)"/>
</clipPath>
</defs>
</svg>
